G04 PROTEUS GERBER X2 FILE*
%TF.GenerationSoftware,Labcenter,Proteus,8.5-SP0-Build22067*%
%TF.CreationDate,2019-05-12T17:32:06+00:00*%
%TF.FileFunction,Soldermask,Bot*%
%TF.FilePolarity,Negative*%
%TF.Part,Single*%
%FSLAX45Y45*%
%MOMM*%
G01*
%TA.AperFunction,Material*%
%ADD29C,1.016000*%
%ADD72C,2.286000*%
%AMPPAD023*
4,1,8,
1.578410,-2.540000,
-1.578410,-2.540000,
-2.032000,-2.086410,
-2.032000,2.086410,
-1.578410,2.540000,
1.578410,2.540000,
2.032000,2.086410,
2.032000,-2.086410,
1.578410,-2.540000,
0*%
%ADD73PPAD023*%
%AMPPAD024*
4,1,8,
2.540000,1.578410,
2.540000,-1.578410,
2.086410,-2.032000,
-2.086410,-2.032000,
-2.540000,-1.578410,
-2.540000,1.578410,
-2.086410,2.032000,
2.086410,2.032000,
2.540000,1.578410,
0*%
%ADD30PPAD024*%
%ADD31C,1.905000*%
%ADD32C,3.302000*%
%AMPPAD027*
4,1,8,
-0.509800,1.397000,
0.509800,1.397000,
0.889000,1.017800,
0.889000,-1.017800,
0.509800,-1.397000,
-0.509800,-1.397000,
-0.889000,-1.017800,
-0.889000,1.017800,
-0.509800,1.397000,
0*%
%ADD33PPAD027*%
%ADD35C,1.778000*%
%AMPPAD030*
4,1,36,
-1.143000,-1.016000,
-1.143000,1.016000,
-1.140470,1.041970,
-1.133200,1.065980,
-1.121650,1.087580,
-1.106290,1.106290,
-1.087570,1.121650,
-1.065980,1.133200,
-1.041970,1.140470,
-1.016000,1.143000,
1.016000,1.143000,
1.041970,1.140470,
1.065980,1.133200,
1.087570,1.121650,
1.106290,1.106290,
1.121650,1.087580,
1.133200,1.065980,
1.140470,1.041970,
1.143000,1.016000,
1.143000,-1.016000,
1.140470,-1.041970,
1.133200,-1.065980,
1.121650,-1.087580,
1.106290,-1.106290,
1.087570,-1.121650,
1.065980,-1.133200,
1.041970,-1.140470,
1.016000,-1.143000,
-1.016000,-1.143000,
-1.041970,-1.140470,
-1.065980,-1.133200,
-1.087570,-1.121650,
-1.106290,-1.106290,
-1.121650,-1.087580,
-1.133200,-1.065980,
-1.140470,-1.041970,
-1.143000,-1.016000,
0*%
%ADD36PPAD030*%
%TA.AperFunction,Profile*%
%ADD20C,0.203200*%
D29*
X+12509500Y+2540000D03*
X+12573000Y+2286000D03*
X+6286500Y+7112000D03*
X+6223000Y+3746500D03*
X+5715000Y+5905500D03*
X+9525000Y+5842000D03*
X+10033000Y+8445500D03*
X+5270500Y+3429000D03*
X+9017000Y+3556000D03*
X+2159000Y+8318500D03*
X+8763000Y+6286500D03*
X+8001000Y+6477000D03*
X+1905000Y+8509000D03*
X+12065000Y+2159000D03*
X+10668000Y+4191000D03*
X+11277600Y+4165600D03*
X+12192000Y+5397500D03*
X+12192000Y+5778500D03*
X+11874500Y+2286000D03*
X+10541000Y+4318000D03*
X+10160000Y+4318000D03*
X+6731000Y+7493000D03*
X+10287000Y+7493000D03*
D72*
X+1125220Y+8956040D03*
X+1379220Y+8956040D03*
X+1633220Y+8956040D03*
X+1887220Y+8956040D03*
X+2141220Y+8956040D03*
X+2395220Y+8956040D03*
X+2649220Y+8956040D03*
X+2903220Y+8956040D03*
X+3157220Y+8956040D03*
X+3411220Y+8956040D03*
X+3665220Y+8956040D03*
X+3919220Y+8956040D03*
X+4173220Y+8956040D03*
X+4427220Y+8956040D03*
X+4681220Y+8956040D03*
X+4935220Y+8956040D03*
X+5461000Y+2603500D03*
X+5715000Y+2603500D03*
X+5969000Y+2603500D03*
X+6223000Y+2603500D03*
X+6477000Y+2603500D03*
X+6731000Y+2603500D03*
X+6985000Y+2603500D03*
X+7239000Y+2603500D03*
X+7493000Y+2603500D03*
X+7747000Y+2603500D03*
X+8001000Y+2603500D03*
X+8255000Y+2603500D03*
X+8509000Y+2603500D03*
X+8763000Y+2603500D03*
X+9017000Y+2603500D03*
X+9271000Y+2603500D03*
X+9525000Y+2603500D03*
X+9779000Y+2603500D03*
X+10033000Y+2603500D03*
X+10287000Y+2603500D03*
X+10287000Y+4127500D03*
X+10033000Y+4127500D03*
X+9779000Y+4127500D03*
X+9525000Y+4127500D03*
X+9271000Y+4127500D03*
X+9017000Y+4127500D03*
X+8763000Y+4127500D03*
X+8509000Y+4127500D03*
X+8255000Y+4127500D03*
X+8001000Y+4127500D03*
X+7747000Y+4127500D03*
X+7493000Y+4127500D03*
X+7239000Y+4127500D03*
X+6985000Y+4127500D03*
X+6731000Y+4127500D03*
X+6477000Y+4127500D03*
X+6223000Y+4127500D03*
X+5969000Y+4127500D03*
X+5715000Y+4127500D03*
X+5461000Y+4127500D03*
X+9329980Y+8668740D03*
X+8729980Y+8968740D03*
X+9329980Y+9268740D03*
X+9169400Y+5161280D03*
X+10185400Y+5161280D03*
X+7200900Y+5161280D03*
X+8216900Y+5161280D03*
D73*
X+1589000Y+3111500D03*
D30*
X+1259000Y+2661500D03*
D73*
X+889000Y+3111500D03*
D72*
X+13543280Y+7907020D03*
X+13543280Y+7507020D03*
X+11899900Y+7955280D03*
X+11899900Y+7701280D03*
X+11899900Y+7447280D03*
X+11899900Y+7193280D03*
X+11899900Y+6939280D03*
X+11899900Y+6685280D03*
X+11899900Y+6431280D03*
X+11899900Y+6177280D03*
X+12661900Y+6177280D03*
X+12661900Y+6431280D03*
X+12661900Y+6685280D03*
X+12661900Y+6939280D03*
X+12661900Y+7193280D03*
X+12661900Y+7447280D03*
X+12661900Y+7701280D03*
X+12661900Y+7955280D03*
X+3853180Y+2590800D03*
X+4869180Y+2590800D03*
X+9187180Y+4726940D03*
X+10203180Y+4726940D03*
X+7200900Y+4729480D03*
X+8216900Y+4729480D03*
X+11811000Y+635000D03*
X+12311000Y+635000D03*
X+4589780Y+3502660D03*
X+4189780Y+3502660D03*
X+10671860Y+6847840D03*
X+10271860Y+6847840D03*
X+13939520Y+2448560D03*
X+13939520Y+2948560D03*
X+13618260Y+6195060D03*
X+13218260Y+6195060D03*
X+9509660Y+6863080D03*
X+9109660Y+6863080D03*
X+9519920Y+7932420D03*
X+9119920Y+7932420D03*
X+10668000Y+7937500D03*
X+10268000Y+7937500D03*
D31*
X+1805940Y+952500D03*
X+1805940Y+1272540D03*
X+1557020Y+1272540D03*
X+1557020Y+952500D03*
D32*
X+1333500Y+1714500D03*
X+1333500Y+510540D03*
D72*
X+11557000Y+3937000D03*
X+11557000Y+4337000D03*
X+12509500Y+4000500D03*
X+12509500Y+4400500D03*
X+11112500Y+9080500D03*
X+11874500Y+9080500D03*
X+12547600Y+9080500D03*
X+13309600Y+9080500D03*
X+12534900Y+8712200D03*
X+13296900Y+8712200D03*
X+11112500Y+8704580D03*
X+11874500Y+8704580D03*
D33*
X+6350000Y+762000D03*
X+6604000Y+762000D03*
X+6858000Y+762000D03*
X+7112000Y+762000D03*
X+7366000Y+762000D03*
X+7620000Y+762000D03*
X+7874000Y+762000D03*
X+8128000Y+762000D03*
X+8763000Y+762000D03*
X+9017000Y+762000D03*
X+9271000Y+762000D03*
X+9525000Y+762000D03*
X+9779000Y+762000D03*
X+10033000Y+762000D03*
X+10287000Y+762000D03*
X+10541000Y+762000D03*
X+3937000Y+762000D03*
X+4191000Y+762000D03*
X+4445000Y+762000D03*
X+4699000Y+762000D03*
X+4953000Y+762000D03*
X+5207000Y+762000D03*
X+5461000Y+762000D03*
X+5715000Y+762000D03*
D72*
X+13970000Y+3810000D03*
X+13716000Y+3810000D03*
D35*
X+2540000Y+1143000D03*
X+2540000Y+889000D03*
D72*
X+11557000Y+1524000D03*
X+12573000Y+1524000D03*
D36*
X+2547620Y+3492500D03*
X+2547620Y+3746500D03*
D72*
X+3121660Y+4104640D03*
X+3121660Y+3088640D03*
D20*
X+0Y+500000D02*
X+0Y+9000000D01*
X+14500000Y+500000D02*
X+14500000Y+9000000D01*
X+14000000Y+0D02*
X+500000Y+0D01*
X+14000000Y+9500000D02*
X+500000Y+9500000D01*
X+0Y+9000000D02*
X+2525Y+9051964D01*
X+9949Y+9102234D01*
X+22041Y+9150581D01*
X+38574Y+9196777D01*
X+59318Y+9240593D01*
X+84045Y+9281799D01*
X+112526Y+9320168D01*
X+144531Y+9355469D01*
X+179832Y+9387474D01*
X+218201Y+9415955D01*
X+259407Y+9440681D01*
X+303223Y+9461426D01*
X+349419Y+9477959D01*
X+397766Y+9490051D01*
X+448036Y+9497475D01*
X+500000Y+9500000D01*
X+14500000Y+9000000D02*
X+14497475Y+9051964D01*
X+14490051Y+9102234D01*
X+14477959Y+9150581D01*
X+14461426Y+9196777D01*
X+14440682Y+9240593D01*
X+14415955Y+9281799D01*
X+14387474Y+9320168D01*
X+14355469Y+9355469D01*
X+14320168Y+9387474D01*
X+14281799Y+9415955D01*
X+14240593Y+9440681D01*
X+14196777Y+9461426D01*
X+14150581Y+9477959D01*
X+14102234Y+9490051D01*
X+14051964Y+9497475D01*
X+14000000Y+9500000D01*
X+14500000Y+500000D02*
X+14497475Y+448036D01*
X+14490051Y+397766D01*
X+14477959Y+349419D01*
X+14461426Y+303223D01*
X+14440682Y+259407D01*
X+14415955Y+218201D01*
X+14387474Y+179832D01*
X+14355469Y+144531D01*
X+14320168Y+112526D01*
X+14281799Y+84045D01*
X+14240593Y+59319D01*
X+14196777Y+38574D01*
X+14150581Y+22041D01*
X+14102234Y+9949D01*
X+14051964Y+2525D01*
X+14000000Y+0D01*
X+0Y+500000D02*
X+2525Y+448036D01*
X+9949Y+397766D01*
X+22041Y+349419D01*
X+38574Y+303223D01*
X+59318Y+259407D01*
X+84045Y+218201D01*
X+112526Y+179832D01*
X+144531Y+144531D01*
X+179832Y+112526D01*
X+218201Y+84045D01*
X+259407Y+59319D01*
X+303223Y+38574D01*
X+349419Y+22041D01*
X+397766Y+9949D01*
X+448036Y+2525D01*
X+500000Y+0D01*
M02*
