G04 PROTEUS GERBER X2 FILE*
%TF.GenerationSoftware,Labcenter,Proteus,8.5-SP0-Build22067*%
%TF.CreationDate,2019-05-13T12:57:21+00:00*%
%TF.FileFunction,Copper,L1,Top*%
%TF.FilePolarity,Positive*%
%TF.Part,Single*%
%FSLAX45Y45*%
%MOMM*%
G01*
%TA.AperFunction,Conductor*%
%ADD10C,0.508000*%
%TA.AperFunction,ViaPad*%
%ADD11C,0.762000*%
%TA.AperFunction,Conductor*%
%ADD12C,0.254000*%
%TA.AperFunction,ComponentPad*%
%ADD13C,2.032000*%
%AMDIL004*
4,1,8,
-1.778000,1.981200,-1.473200,2.286000,1.473200,2.286000,1.778000,1.981200,1.778000,-1.981200,
1.473200,-2.286000,-1.473200,-2.286000,-1.778000,-1.981200,-1.778000,1.981200,
0*%
%ADD14DIL004*%
%AMDIL005*
4,1,8,
-2.286000,1.473200,-1.981200,1.778000,1.981200,1.778000,2.286000,1.473200,2.286000,-1.473200,
1.981200,-1.778000,-1.981200,-1.778000,-2.286000,-1.473200,-2.286000,1.473200,
0*%
%ADD15DIL005*%
%TA.AperFunction,WasherPad*%
%ADD16C,1.651000*%
%ADD17C,3.048000*%
%AMDIL008*
4,1,8,
-0.762000,0.965200,-0.457200,1.270000,0.457200,1.270000,0.762000,0.965200,0.762000,-0.965200,
0.457200,-1.270000,-0.457200,-1.270000,-0.762000,-0.965200,-0.762000,0.965200,
0*%
%TA.AperFunction,ComponentPad*%
%ADD18DIL008*%
%TA.AperFunction,SMDPad,CuDef*%
%ADD19R,1.397000X0.609600*%
%TA.AperFunction,WasherPad*%
%ADD70C,1.524000*%
%TA.AperFunction,ComponentPad*%
%ADD71R,2.032000X2.032000*%
%TA.AperFunction,Profile*%
%ADD20C,0.203200*%
G36*
X+14045770Y+9434201D02*
X+14089862Y+9427689D01*
X+14132134Y+9417117D01*
X+14172433Y+9402694D01*
X+14210598Y+9384625D01*
X+14246454Y+9363109D01*
X+14279822Y+9338340D01*
X+14310514Y+9310514D01*
X+14338340Y+9279822D01*
X+14363110Y+9246453D01*
X+14384626Y+9210598D01*
X+14402694Y+9172434D01*
X+14417117Y+9132134D01*
X+14427689Y+9089862D01*
X+14434201Y+9045770D01*
X+14436500Y+8998458D01*
X+14436500Y+501542D01*
X+14434201Y+454230D01*
X+14427689Y+410138D01*
X+14417117Y+367866D01*
X+14402694Y+327566D01*
X+14384626Y+289402D01*
X+14363110Y+253547D01*
X+14338340Y+220178D01*
X+14310514Y+189486D01*
X+14279822Y+161660D01*
X+14246454Y+136891D01*
X+14210598Y+115375D01*
X+14172433Y+97306D01*
X+14132134Y+82883D01*
X+14089862Y+72311D01*
X+14045770Y+65799D01*
X+13998458Y+63500D01*
X+501542Y+63500D01*
X+454230Y+65799D01*
X+410138Y+72311D01*
X+367866Y+82883D01*
X+327567Y+97306D01*
X+289402Y+115375D01*
X+253546Y+136891D01*
X+220178Y+161660D01*
X+189486Y+189486D01*
X+161660Y+220178D01*
X+136890Y+253547D01*
X+115374Y+289402D01*
X+97306Y+327566D01*
X+82883Y+367866D01*
X+72311Y+410138D01*
X+65799Y+454230D01*
X+63500Y+501542D01*
X+63500Y+8998458D01*
X+65799Y+9045770D01*
X+72311Y+9089862D01*
X+82883Y+9132134D01*
X+97306Y+9172434D01*
X+115374Y+9210598D01*
X+136890Y+9246453D01*
X+161660Y+9279822D01*
X+189486Y+9310514D01*
X+220178Y+9338340D01*
X+253546Y+9363109D01*
X+289402Y+9384625D01*
X+327567Y+9402694D01*
X+367866Y+9417117D01*
X+410138Y+9427689D01*
X+454230Y+9434201D01*
X+501542Y+9436500D01*
X+9246294Y+9436500D01*
X+9152181Y+9342387D01*
X+9152181Y+9195093D01*
X+9256333Y+9090941D01*
X+9403627Y+9090941D01*
X+9507779Y+9195093D01*
X+9507779Y+9342387D01*
X+9413666Y+9436500D01*
X+11324818Y+9436500D01*
X+11146617Y+9258299D01*
X+11038853Y+9258299D01*
X+10934701Y+9154147D01*
X+10934701Y+9006853D01*
X+11038853Y+8902701D01*
X+11186147Y+8902701D01*
X+11290299Y+9006853D01*
X+11290299Y+9114617D01*
X+11421283Y+9245601D01*
X+11788155Y+9245601D01*
X+11696701Y+9154147D01*
X+11696701Y+9006853D01*
X+11800853Y+8902701D01*
X+11948147Y+8902701D01*
X+12052299Y+9006853D01*
X+12052299Y+9154147D01*
X+11960845Y+9245601D01*
X+12238817Y+9245601D01*
X+12369801Y+9114617D01*
X+12369801Y+9006853D01*
X+12473953Y+8902701D01*
X+12621247Y+8902701D01*
X+12725399Y+9006853D01*
X+12725399Y+9154147D01*
X+12621247Y+9258299D01*
X+12513483Y+9258299D01*
X+12335282Y+9436500D01*
X+13998458Y+9436500D01*
X+14045770Y+9434201D01*
G37*
%LPC*%
G36*
X+5113019Y+9029687D02*
X+5113019Y+8921923D01*
X+5264603Y+8770339D01*
X+9180133Y+8770339D01*
X+9256333Y+8846539D01*
X+9403627Y+8846539D01*
X+9507779Y+8742387D01*
X+9507779Y+8595093D01*
X+9447085Y+8534399D01*
X+9960256Y+8534399D01*
X+9985656Y+8559799D01*
X+10080344Y+8559799D01*
X+10147299Y+8492844D01*
X+10147299Y+8398156D01*
X+10080344Y+8331201D01*
X+5934881Y+8331201D01*
X+5994399Y+8271683D01*
X+5994399Y+6646083D01*
X+6036483Y+6603999D01*
X+6053919Y+6603999D01*
X+5994401Y+6663517D01*
X+5994401Y+8170083D01*
X+6155517Y+8331199D01*
X+12132483Y+8331199D01*
X+12293599Y+8170083D01*
X+12293599Y+7951297D01*
X+12077699Y+7735397D01*
X+12077699Y+7627633D01*
X+12024346Y+7574280D01*
X+12077699Y+7520927D01*
X+12077699Y+7373633D01*
X+12024346Y+7320280D01*
X+12077699Y+7266927D01*
X+12077699Y+7119633D01*
X+12024346Y+7066280D01*
X+12049747Y+7040879D01*
X+12512053Y+7040879D01*
X+12537454Y+7066280D01*
X+12484101Y+7119633D01*
X+12484101Y+7266927D01*
X+12537454Y+7320280D01*
X+12484101Y+7373633D01*
X+12484101Y+7520927D01*
X+12537454Y+7574280D01*
X+12484101Y+7627633D01*
X+12484101Y+7774927D01*
X+12537454Y+7828280D01*
X+12484101Y+7881633D01*
X+12484101Y+8028927D01*
X+12588253Y+8133079D01*
X+12735547Y+8133079D01*
X+12839699Y+8028927D01*
X+12839699Y+7881633D01*
X+12786346Y+7828280D01*
X+12839699Y+7774927D01*
X+12839699Y+7627633D01*
X+12786346Y+7574280D01*
X+12839699Y+7520927D01*
X+12839699Y+7373633D01*
X+12786346Y+7320280D01*
X+12811747Y+7294879D01*
X+13187457Y+7294879D01*
X+13365481Y+7472903D01*
X+13365481Y+7580667D01*
X+13469633Y+7684819D01*
X+13616927Y+7684819D01*
X+13721079Y+7580667D01*
X+13721079Y+7433373D01*
X+13616927Y+7329221D01*
X+13509163Y+7329221D01*
X+13271623Y+7091681D01*
X+12811747Y+7091681D01*
X+12786346Y+7066280D01*
X+12839699Y+7012927D01*
X+12839699Y+6865633D01*
X+12786346Y+6812280D01*
X+12839699Y+6758927D01*
X+12839699Y+6611633D01*
X+12786346Y+6558280D01*
X+12839699Y+6504927D01*
X+12839699Y+6357633D01*
X+12786346Y+6304280D01*
X+12793967Y+6296659D01*
X+13068413Y+6296659D01*
X+13144613Y+6372859D01*
X+13291907Y+6372859D01*
X+13396059Y+6268707D01*
X+13396059Y+6121413D01*
X+13291907Y+6017261D01*
X+13144613Y+6017261D01*
X+13068413Y+6093461D01*
X+12829527Y+6093461D01*
X+12735547Y+5999481D01*
X+12588253Y+5999481D01*
X+12484101Y+6103633D01*
X+12484101Y+6250927D01*
X+12537454Y+6304280D01*
X+12484101Y+6357633D01*
X+12484101Y+6504927D01*
X+12537454Y+6558280D01*
X+12484101Y+6611633D01*
X+12484101Y+6758927D01*
X+12537454Y+6812280D01*
X+12512053Y+6837681D01*
X+12049747Y+6837681D01*
X+12024346Y+6812280D01*
X+12077699Y+6758927D01*
X+12077699Y+6611633D01*
X+12024346Y+6558280D01*
X+12077699Y+6504927D01*
X+12077699Y+6357633D01*
X+12024346Y+6304280D01*
X+12077699Y+6250927D01*
X+12077699Y+6103633D01*
X+11973547Y+5999481D01*
X+11826253Y+5999481D01*
X+11722101Y+6103633D01*
X+11722101Y+6109799D01*
X+11379199Y+5766897D01*
X+11379199Y+5418917D01*
X+10388599Y+4428317D01*
X+10388599Y+4277347D01*
X+10464799Y+4201147D01*
X+10464799Y+4053853D01*
X+10360647Y+3949701D01*
X+10213353Y+3949701D01*
X+10160000Y+4003054D01*
X+10106647Y+3949701D01*
X+9959353Y+3949701D01*
X+9906000Y+4003054D01*
X+9852647Y+3949701D01*
X+9705353Y+3949701D01*
X+9652000Y+4003054D01*
X+9598647Y+3949701D01*
X+9451353Y+3949701D01*
X+9398000Y+4003054D01*
X+9344647Y+3949701D01*
X+9197353Y+3949701D01*
X+9144000Y+4003054D01*
X+9090647Y+3949701D01*
X+8943353Y+3949701D01*
X+8890000Y+4003054D01*
X+8836647Y+3949701D01*
X+8689353Y+3949701D01*
X+8636000Y+4003054D01*
X+8582647Y+3949701D01*
X+8435353Y+3949701D01*
X+8382000Y+4003054D01*
X+8328647Y+3949701D01*
X+8181353Y+3949701D01*
X+8128000Y+4003054D01*
X+8074647Y+3949701D01*
X+7927353Y+3949701D01*
X+7874000Y+4003054D01*
X+7820647Y+3949701D01*
X+7673353Y+3949701D01*
X+7620000Y+4003054D01*
X+7566647Y+3949701D01*
X+7419353Y+3949701D01*
X+7366000Y+4003054D01*
X+7312647Y+3949701D01*
X+7165353Y+3949701D01*
X+7112000Y+4003054D01*
X+7058647Y+3949701D01*
X+6911353Y+3949701D01*
X+6858000Y+4003054D01*
X+6804647Y+3949701D01*
X+6657353Y+3949701D01*
X+6604000Y+4003054D01*
X+6550647Y+3949701D01*
X+6403353Y+3949701D01*
X+6350000Y+4003054D01*
X+6296647Y+3949701D01*
X+6149353Y+3949701D01*
X+6096000Y+4003054D01*
X+6042647Y+3949701D01*
X+5895353Y+3949701D01*
X+5842000Y+4003054D01*
X+5788647Y+3949701D01*
X+5641353Y+3949701D01*
X+5588000Y+4003054D01*
X+5534647Y+3949701D01*
X+5387353Y+3949701D01*
X+5384799Y+3952255D01*
X+5384799Y+3858433D01*
X+5426883Y+3816349D01*
X+6131206Y+3816349D01*
X+6175656Y+3860799D01*
X+6270344Y+3860799D01*
X+6337299Y+3793844D01*
X+6337299Y+3699156D01*
X+6295742Y+3657599D01*
X+8956956Y+3657599D01*
X+8969656Y+3670299D01*
X+9064344Y+3670299D01*
X+9131299Y+3603344D01*
X+9131299Y+3508656D01*
X+9064344Y+3441701D01*
X+8969656Y+3441701D01*
X+8956956Y+3454401D01*
X+5439583Y+3454401D01*
X+5384799Y+3399617D01*
X+5384799Y+3381656D01*
X+5355942Y+3352799D01*
X+10829117Y+3352799D01*
X+11379201Y+3902883D01*
X+11379201Y+4010647D01*
X+11483353Y+4114799D01*
X+11630647Y+4114799D01*
X+11734799Y+4010647D01*
X+11734799Y+3863353D01*
X+11630647Y+3759201D01*
X+11522883Y+3759201D01*
X+10913283Y+3149601D01*
X+8102599Y+3149601D01*
X+8102599Y+2753347D01*
X+8128000Y+2727946D01*
X+8181353Y+2781299D01*
X+8328647Y+2781299D01*
X+8382000Y+2727946D01*
X+8435353Y+2781299D01*
X+8582647Y+2781299D01*
X+8636000Y+2727946D01*
X+8689353Y+2781299D01*
X+8836647Y+2781299D01*
X+8890000Y+2727946D01*
X+8943353Y+2781299D01*
X+9090647Y+2781299D01*
X+9144000Y+2727946D01*
X+9197353Y+2781299D01*
X+9344647Y+2781299D01*
X+9398000Y+2727946D01*
X+9451353Y+2781299D01*
X+9598647Y+2781299D01*
X+9652000Y+2727946D01*
X+9705353Y+2781299D01*
X+9852647Y+2781299D01*
X+9906000Y+2727946D01*
X+9959353Y+2781299D01*
X+10106647Y+2781299D01*
X+10160000Y+2727946D01*
X+10213353Y+2781299D01*
X+10360647Y+2781299D01*
X+10464799Y+2677147D01*
X+10464799Y+2529853D01*
X+10360647Y+2425701D01*
X+10213353Y+2425701D01*
X+10160000Y+2479054D01*
X+10106647Y+2425701D01*
X+9959353Y+2425701D01*
X+9906000Y+2479054D01*
X+9852647Y+2425701D01*
X+9705353Y+2425701D01*
X+9652000Y+2479054D01*
X+9598647Y+2425701D01*
X+9451353Y+2425701D01*
X+9398000Y+2479054D01*
X+9344647Y+2425701D01*
X+9197353Y+2425701D01*
X+9144000Y+2479054D01*
X+9090647Y+2425701D01*
X+8943353Y+2425701D01*
X+8890000Y+2479054D01*
X+8836647Y+2425701D01*
X+8689353Y+2425701D01*
X+8636000Y+2479054D01*
X+8582647Y+2425701D01*
X+8435353Y+2425701D01*
X+8382000Y+2479054D01*
X+8328647Y+2425701D01*
X+8181353Y+2425701D01*
X+8128000Y+2479054D01*
X+8074647Y+2425701D01*
X+7927353Y+2425701D01*
X+7874000Y+2479054D01*
X+7820647Y+2425701D01*
X+7673353Y+2425701D01*
X+7620000Y+2479054D01*
X+7566647Y+2425701D01*
X+7419353Y+2425701D01*
X+7366000Y+2479054D01*
X+7312647Y+2425701D01*
X+7165353Y+2425701D01*
X+7112000Y+2479054D01*
X+7058647Y+2425701D01*
X+6911353Y+2425701D01*
X+6858000Y+2479054D01*
X+6804647Y+2425701D01*
X+6657353Y+2425701D01*
X+6604000Y+2479054D01*
X+6550647Y+2425701D01*
X+6403353Y+2425701D01*
X+6350000Y+2479054D01*
X+6296647Y+2425701D01*
X+6149353Y+2425701D01*
X+6096000Y+2479054D01*
X+6042647Y+2425701D01*
X+5895353Y+2425701D01*
X+5842000Y+2479054D01*
X+5788647Y+2425701D01*
X+5641353Y+2425701D01*
X+5588000Y+2479054D01*
X+5534647Y+2425701D01*
X+5387353Y+2425701D01*
X+5283201Y+2529853D01*
X+5283201Y+2677147D01*
X+5349255Y+2743201D01*
X+4968225Y+2743201D01*
X+5046979Y+2664447D01*
X+5046979Y+2517153D01*
X+4942827Y+2413001D01*
X+4795533Y+2413001D01*
X+4691381Y+2517153D01*
X+4691381Y+2664447D01*
X+4770135Y+2743201D01*
X+4149263Y+2743201D01*
X+4030979Y+2624917D01*
X+4030979Y+2517153D01*
X+3926827Y+2413001D01*
X+3779533Y+2413001D01*
X+3675381Y+2517153D01*
X+3675381Y+2664447D01*
X+3779533Y+2768599D01*
X+3887297Y+2768599D01*
X+4065097Y+2946399D01*
X+7293783Y+2946399D01*
X+7458883Y+2781299D01*
X+7566647Y+2781299D01*
X+7620000Y+2727946D01*
X+7673353Y+2781299D01*
X+7820647Y+2781299D01*
X+7874000Y+2727946D01*
X+7899401Y+2753347D01*
X+7899401Y+3132917D01*
X+7882717Y+3149601D01*
X+4799157Y+3149601D01*
X+4623897Y+3324861D01*
X+4555663Y+3324861D01*
X+4217843Y+2987041D01*
X+3271507Y+2987041D01*
X+3195307Y+2910841D01*
X+3087543Y+2910841D01*
X+2736603Y+2559901D01*
X+1563799Y+2559901D01*
X+1563799Y+2407501D01*
X+954201Y+2407501D01*
X+954201Y+2806701D01*
X+635001Y+2806701D01*
X+635001Y+3416299D01*
X+1142999Y+3416299D01*
X+1142999Y+2915499D01*
X+1335001Y+2915499D01*
X+1335001Y+3416299D01*
X+1842999Y+3416299D01*
X+1842999Y+2806701D01*
X+1563799Y+2806701D01*
X+1563799Y+2763099D01*
X+2652437Y+2763099D01*
X+2943861Y+3054523D01*
X+2943861Y+3162287D01*
X+3048013Y+3266439D01*
X+3195307Y+3266439D01*
X+3271507Y+3190239D01*
X+4133677Y+3190239D01*
X+4411981Y+3468543D01*
X+4411981Y+3576307D01*
X+4516133Y+3680459D01*
X+4663427Y+3680459D01*
X+4767579Y+3576307D01*
X+4767579Y+3468543D01*
X+4883323Y+3352799D01*
X+5185058Y+3352799D01*
X+5156201Y+3381656D01*
X+5156201Y+3476344D01*
X+5223156Y+3543299D01*
X+5241117Y+3543299D01*
X+5326843Y+3629025D01*
X+5181601Y+3774267D01*
X+5181601Y+6036483D01*
X+5342717Y+6197599D01*
X+5603069Y+6197599D01*
X+5486401Y+6314267D01*
X+5486401Y+8085917D01*
X+5444317Y+8128001D01*
X+2497917Y+8128001D01*
X+2396317Y+8229601D01*
X+2231744Y+8229601D01*
X+2206344Y+8204201D01*
X+2111656Y+8204201D01*
X+2044701Y+8271156D01*
X+2044701Y+8365844D01*
X+2086258Y+8407401D01*
X+1965044Y+8407401D01*
X+1952344Y+8394701D01*
X+1857656Y+8394701D01*
X+1790701Y+8461656D01*
X+1790701Y+8556344D01*
X+1857656Y+8623299D01*
X+1952344Y+8623299D01*
X+1965044Y+8610599D01*
X+2582083Y+8610599D01*
X+2759883Y+8432799D01*
X+4806779Y+8432799D01*
X+4461337Y+8778241D01*
X+4353573Y+8778241D01*
X+4300220Y+8831594D01*
X+4246867Y+8778241D01*
X+4099573Y+8778241D01*
X+4046220Y+8831594D01*
X+3992867Y+8778241D01*
X+3845573Y+8778241D01*
X+3792220Y+8831594D01*
X+3738867Y+8778241D01*
X+3591573Y+8778241D01*
X+3538220Y+8831594D01*
X+3484867Y+8778241D01*
X+3337573Y+8778241D01*
X+3284220Y+8831594D01*
X+3230867Y+8778241D01*
X+3083573Y+8778241D01*
X+3030220Y+8831594D01*
X+2976867Y+8778241D01*
X+2829573Y+8778241D01*
X+2776220Y+8831594D01*
X+2722867Y+8778241D01*
X+2575573Y+8778241D01*
X+2522220Y+8831594D01*
X+2468867Y+8778241D01*
X+2321573Y+8778241D01*
X+2268220Y+8831594D01*
X+2214867Y+8778241D01*
X+2067573Y+8778241D01*
X+2014220Y+8831594D01*
X+1960867Y+8778241D01*
X+1813573Y+8778241D01*
X+1760220Y+8831594D01*
X+1706867Y+8778241D01*
X+1559573Y+8778241D01*
X+1506220Y+8831594D01*
X+1452867Y+8778241D01*
X+1305573Y+8778241D01*
X+1252220Y+8831594D01*
X+1198867Y+8778241D01*
X+1051573Y+8778241D01*
X+947421Y+8882393D01*
X+947421Y+9029687D01*
X+1051573Y+9133839D01*
X+1198867Y+9133839D01*
X+1252220Y+9080486D01*
X+1305573Y+9133839D01*
X+1452867Y+9133839D01*
X+1506220Y+9080486D01*
X+1559573Y+9133839D01*
X+1706867Y+9133839D01*
X+1760220Y+9080486D01*
X+1813573Y+9133839D01*
X+1960867Y+9133839D01*
X+2014220Y+9080486D01*
X+2067573Y+9133839D01*
X+2214867Y+9133839D01*
X+2268220Y+9080486D01*
X+2321573Y+9133839D01*
X+2468867Y+9133839D01*
X+2522220Y+9080486D01*
X+2575573Y+9133839D01*
X+2722867Y+9133839D01*
X+2776220Y+9080486D01*
X+2829573Y+9133839D01*
X+2976867Y+9133839D01*
X+3030220Y+9080486D01*
X+3083573Y+9133839D01*
X+3230867Y+9133839D01*
X+3284220Y+9080486D01*
X+3337573Y+9133839D01*
X+3484867Y+9133839D01*
X+3538220Y+9080486D01*
X+3591573Y+9133839D01*
X+3738867Y+9133839D01*
X+3792220Y+9080486D01*
X+3845573Y+9133839D01*
X+3992867Y+9133839D01*
X+4046220Y+9080486D01*
X+4099573Y+9133839D01*
X+4246867Y+9133839D01*
X+4300220Y+9080486D01*
X+4353573Y+9133839D01*
X+4500867Y+9133839D01*
X+4554220Y+9080486D01*
X+4607573Y+9133839D01*
X+4754867Y+9133839D01*
X+4808220Y+9080486D01*
X+4861573Y+9133839D01*
X+5008867Y+9133839D01*
X+5113019Y+9029687D01*
G37*
G36*
X+8907779Y+9042387D02*
X+8907779Y+8895093D01*
X+8803627Y+8790941D01*
X+8656333Y+8790941D01*
X+8552181Y+8895093D01*
X+8552181Y+9042387D01*
X+8656333Y+9146539D01*
X+8803627Y+9146539D01*
X+8907779Y+9042387D01*
G37*
G36*
X+13365481Y+7833373D02*
X+13365481Y+7980667D01*
X+13469633Y+8084819D01*
X+13616927Y+8084819D01*
X+13721079Y+7980667D01*
X+13721079Y+7833373D01*
X+13616927Y+7729221D01*
X+13469633Y+7729221D01*
X+13365481Y+7833373D01*
G37*
G36*
X+11633201Y+561353D02*
X+11633201Y+708647D01*
X+11737353Y+812799D01*
X+11884647Y+812799D01*
X+11988799Y+708647D01*
X+11988799Y+561353D01*
X+11884647Y+457201D01*
X+11737353Y+457201D01*
X+11633201Y+561353D01*
G37*
G36*
X+12133201Y+561353D02*
X+12133201Y+708647D01*
X+12237353Y+812799D01*
X+12384647Y+812799D01*
X+12488799Y+708647D01*
X+12488799Y+561353D01*
X+12384647Y+457201D01*
X+12237353Y+457201D01*
X+12133201Y+561353D01*
G37*
G36*
X+4367579Y+3576307D02*
X+4367579Y+3429013D01*
X+4263427Y+3324861D01*
X+4116133Y+3324861D01*
X+4011981Y+3429013D01*
X+4011981Y+3576307D01*
X+4116133Y+3680459D01*
X+4263427Y+3680459D01*
X+4367579Y+3576307D01*
G37*
G36*
X+11734799Y+4410647D02*
X+11734799Y+4302883D01*
X+11988799Y+4048883D01*
X+11988799Y+2582083D01*
X+12056283Y+2514599D01*
X+12117951Y+2514599D01*
X+12117951Y+2646679D01*
X+12410049Y+2646679D01*
X+12410049Y+2641599D01*
X+12449456Y+2641599D01*
X+12462156Y+2654299D01*
X+12556844Y+2654299D01*
X+12623799Y+2587344D01*
X+12623799Y+2492656D01*
X+12556844Y+2425701D01*
X+12462156Y+2425701D01*
X+12449456Y+2438401D01*
X+12410049Y+2438401D01*
X+12410049Y+2387599D01*
X+12512956Y+2387599D01*
X+12525656Y+2400299D01*
X+12620344Y+2400299D01*
X+12687299Y+2333344D01*
X+12687299Y+2260599D01*
X+13607877Y+2260599D01*
X+13761721Y+2414443D01*
X+13761721Y+2522207D01*
X+13865873Y+2626359D01*
X+14013167Y+2626359D01*
X+14020801Y+2618725D01*
X+14020801Y+2723597D01*
X+13973637Y+2770761D01*
X+13865873Y+2770761D01*
X+13761721Y+2874913D01*
X+13761721Y+3022207D01*
X+13865873Y+3126359D01*
X+14013167Y+3126359D01*
X+14117319Y+3022207D01*
X+14117319Y+2914443D01*
X+14223999Y+2807763D01*
X+14223999Y+1989917D01*
X+14062883Y+1828801D01*
X+11540317Y+1828801D01*
X+11438717Y+1930401D01*
X+8271683Y+1930401D01*
X+8229599Y+1888317D01*
X+8229599Y+965199D01*
X+8280399Y+965199D01*
X+8280399Y+558801D01*
X+6197601Y+558801D01*
X+6197601Y+965199D01*
X+6248401Y+965199D01*
X+6248401Y+1058083D01*
X+6307917Y+1117599D01*
X+7916083Y+1117599D01*
X+7975599Y+1058083D01*
X+7975599Y+965199D01*
X+8026401Y+965199D01*
X+8026401Y+1972483D01*
X+8187517Y+2133599D01*
X+11379201Y+2133599D01*
X+11379201Y+2582083D01*
X+11438717Y+2641599D01*
X+11537951Y+2641599D01*
X+11537951Y+2646679D01*
X+11785601Y+2646679D01*
X+11785601Y+3964717D01*
X+11591117Y+4159201D01*
X+11483353Y+4159201D01*
X+11407153Y+4235401D01*
X+11369442Y+4235401D01*
X+11391899Y+4212944D01*
X+11391899Y+4118256D01*
X+11324944Y+4051301D01*
X+11230256Y+4051301D01*
X+11217556Y+4064001D01*
X+10651317Y+4064001D01*
X+10638617Y+4076701D01*
X+10620656Y+4076701D01*
X+10553701Y+4143656D01*
X+10553701Y+4203701D01*
X+10493656Y+4203701D01*
X+10480956Y+4216401D01*
X+10467167Y+4216401D01*
X+10407651Y+4275917D01*
X+10407651Y+4379083D01*
X+10467167Y+4438599D01*
X+11407153Y+4438599D01*
X+11483353Y+4514799D01*
X+11630647Y+4514799D01*
X+11734799Y+4410647D01*
G37*
G36*
X+13796059Y+6268707D02*
X+13796059Y+6121413D01*
X+13691907Y+6017261D01*
X+13544613Y+6017261D01*
X+13440461Y+6121413D01*
X+13440461Y+6268707D01*
X+13544613Y+6372859D01*
X+13691907Y+6372859D01*
X+13796059Y+6268707D01*
G37*
G36*
X+2692399Y+1206126D02*
X+2692399Y+1079874D01*
X+2628525Y+1016000D01*
X+2692399Y+952126D01*
X+2692399Y+825874D01*
X+2603126Y+736601D01*
X+2531283Y+736601D01*
X+2302683Y+508001D01*
X+1857837Y+508001D01*
X+1572087Y+793751D01*
X+1491264Y+793751D01*
X+1398271Y+886744D01*
X+1398271Y+1018256D01*
X+1491264Y+1111249D01*
X+1622776Y+1111249D01*
X+1681480Y+1052545D01*
X+1740184Y+1111249D01*
X+1871696Y+1111249D01*
X+1964689Y+1018256D01*
X+1964689Y+886744D01*
X+1871696Y+793751D01*
X+1859451Y+793751D01*
X+1942003Y+711199D01*
X+2218517Y+711199D01*
X+2387601Y+880283D01*
X+2387601Y+952126D01*
X+2451475Y+1016000D01*
X+2387601Y+1079874D01*
X+2387601Y+1206126D01*
X+2476874Y+1295399D01*
X+2603126Y+1295399D01*
X+2692399Y+1206126D01*
G37*
G36*
X+1964689Y+1338296D02*
X+1964689Y+1206784D01*
X+1871696Y+1113791D01*
X+1740184Y+1113791D01*
X+1681480Y+1172495D01*
X+1622776Y+1113791D01*
X+1491264Y+1113791D01*
X+1398271Y+1206784D01*
X+1398271Y+1338296D01*
X+1491264Y+1431289D01*
X+1622776Y+1431289D01*
X+1681480Y+1372585D01*
X+1740184Y+1431289D01*
X+1871696Y+1431289D01*
X+1964689Y+1338296D01*
G37*
G36*
X+1104901Y+1619811D02*
X+1104901Y+1809189D01*
X+1238811Y+1943099D01*
X+1428189Y+1943099D01*
X+1562099Y+1809189D01*
X+1562099Y+1619811D01*
X+1428189Y+1485901D01*
X+1238811Y+1485901D01*
X+1104901Y+1619811D01*
G37*
G36*
X+1104901Y+415851D02*
X+1104901Y+605229D01*
X+1238811Y+739139D01*
X+1428189Y+739139D01*
X+1562099Y+605229D01*
X+1562099Y+415851D01*
X+1428189Y+281941D01*
X+1238811Y+281941D01*
X+1104901Y+415851D01*
G37*
G36*
X+12583147Y+3822701D02*
X+12435853Y+3822701D01*
X+12331701Y+3926853D01*
X+12331701Y+4074147D01*
X+12435853Y+4178299D01*
X+12583147Y+4178299D01*
X+12687299Y+4074147D01*
X+12687299Y+3926853D01*
X+12583147Y+3822701D01*
G37*
G36*
X+12583147Y+4222701D02*
X+12435853Y+4222701D01*
X+12331701Y+4326853D01*
X+12331701Y+4474147D01*
X+12435853Y+4578299D01*
X+12583147Y+4578299D01*
X+12687299Y+4474147D01*
X+12687299Y+4326853D01*
X+12583147Y+4222701D01*
G37*
G36*
X+13487399Y+9154147D02*
X+13487399Y+9006853D01*
X+13383247Y+8902701D01*
X+13275483Y+8902701D01*
X+13262781Y+8889999D01*
X+13370547Y+8889999D01*
X+13474699Y+8785847D01*
X+13474699Y+8638553D01*
X+13370547Y+8534401D01*
X+13262783Y+8534401D01*
X+13059583Y+8331201D01*
X+12104197Y+8331201D01*
X+11908617Y+8526781D01*
X+11800853Y+8526781D01*
X+11696701Y+8630933D01*
X+11696701Y+8778227D01*
X+11800853Y+8882379D01*
X+11948147Y+8882379D01*
X+12052299Y+8778227D01*
X+12052299Y+8670463D01*
X+12188363Y+8534399D01*
X+12975417Y+8534399D01*
X+13119101Y+8678083D01*
X+13119101Y+8746319D01*
X+12983383Y+8610601D01*
X+12684747Y+8610601D01*
X+12608547Y+8534401D01*
X+12461253Y+8534401D01*
X+12357101Y+8638553D01*
X+12357101Y+8785847D01*
X+12461253Y+8889999D01*
X+12608547Y+8889999D01*
X+12684747Y+8813799D01*
X+12899217Y+8813799D01*
X+13131801Y+9046383D01*
X+13131801Y+9154147D01*
X+13235953Y+9258299D01*
X+13383247Y+9258299D01*
X+13487399Y+9154147D01*
G37*
G36*
X+10934701Y+8630933D02*
X+10934701Y+8778227D01*
X+11038853Y+8882379D01*
X+11186147Y+8882379D01*
X+11290299Y+8778227D01*
X+11290299Y+8630933D01*
X+11186147Y+8526781D01*
X+11038853Y+8526781D01*
X+10934701Y+8630933D01*
G37*
G36*
X+10693399Y+558801D02*
X+8610601Y+558801D01*
X+8610601Y+965199D01*
X+10693399Y+965199D01*
X+10693399Y+558801D01*
G37*
G36*
X+5867399Y+558801D02*
X+3784601Y+558801D01*
X+3784601Y+965199D01*
X+5867399Y+965199D01*
X+5867399Y+558801D01*
G37*
G36*
X+14147799Y+3883647D02*
X+14147799Y+3736353D01*
X+14043647Y+3632201D01*
X+13896353Y+3632201D01*
X+13843000Y+3685554D01*
X+13789647Y+3632201D01*
X+13642353Y+3632201D01*
X+13538201Y+3736353D01*
X+13538201Y+3883647D01*
X+13642353Y+3987799D01*
X+13789647Y+3987799D01*
X+13843000Y+3934446D01*
X+13896353Y+3987799D01*
X+14043647Y+3987799D01*
X+14147799Y+3883647D01*
G37*
G36*
X+11379201Y+1450353D02*
X+11379201Y+1597647D01*
X+11483353Y+1701799D01*
X+11630647Y+1701799D01*
X+11734799Y+1597647D01*
X+11734799Y+1450353D01*
X+11630647Y+1346201D01*
X+11483353Y+1346201D01*
X+11379201Y+1450353D01*
G37*
G36*
X+12395201Y+1450353D02*
X+12395201Y+1597647D01*
X+12499353Y+1701799D01*
X+12646647Y+1701799D01*
X+12750799Y+1597647D01*
X+12750799Y+1450353D01*
X+12646647Y+1346201D01*
X+12499353Y+1346201D01*
X+12395201Y+1450353D01*
G37*
G36*
X+2725419Y+3568701D02*
X+2725419Y+3314701D01*
X+2369821Y+3314701D01*
X+2369821Y+3924299D01*
X+2725419Y+3924299D01*
X+2725419Y+3568701D01*
G37*
G36*
X+3048013Y+4282439D02*
X+3195307Y+4282439D01*
X+3299459Y+4178287D01*
X+3299459Y+4030993D01*
X+3195307Y+3926841D01*
X+3048013Y+3926841D01*
X+2943861Y+4030993D01*
X+2943861Y+4178287D01*
X+3048013Y+4282439D01*
G37*
G36*
X+12306299Y+5825844D02*
X+12306299Y+5731156D01*
X+12293599Y+5718456D01*
X+12293599Y+5457544D01*
X+12306299Y+5444844D01*
X+12306299Y+5350156D01*
X+12239344Y+5283201D01*
X+12144656Y+5283201D01*
X+12077701Y+5350156D01*
X+12077701Y+5444844D01*
X+12090401Y+5457544D01*
X+12090401Y+5718456D01*
X+12077701Y+5731156D01*
X+12077701Y+5825844D01*
X+12144656Y+5892799D01*
X+12239344Y+5892799D01*
X+12306299Y+5825844D01*
G37*
%LPD*%
D10*
X+3853180Y+2590800D02*
X+4107180Y+2844800D01*
X+7251700Y+2844800D01*
X+7493000Y+2603500D01*
X+10271860Y+6847840D02*
X+10271860Y+5689600D01*
X+10170260Y+5588000D01*
X+6921500Y+5588000D01*
X+5461000Y+4127500D01*
X+12509500Y+2540000D02*
X+12264000Y+2540000D01*
X+12573000Y+2286000D02*
X+12264000Y+2286000D01*
X+2540000Y+889000D02*
X+2260600Y+609600D01*
X+1899920Y+609600D01*
X+1557020Y+952500D01*
X+6286500Y+7112000D02*
X+11056620Y+7112000D01*
X+11899900Y+7955280D01*
X+6223000Y+3746500D02*
X+6191250Y+3714750D01*
X+5384800Y+3714750D01*
X+5283200Y+3816350D01*
X+5283200Y+5994400D01*
X+5384800Y+6096000D01*
X+8940800Y+6096000D01*
X+9042400Y+6197600D01*
X+9042400Y+6502400D01*
X+8940800Y+6604000D01*
X+6197600Y+6604000D01*
X+6096000Y+6705600D01*
X+6096000Y+8128000D01*
X+6197600Y+8229600D01*
X+12090400Y+8229600D01*
X+12192000Y+8128000D01*
X+12192000Y+7993380D01*
X+11899900Y+7701280D01*
X+10287000Y+4127500D02*
X+10287000Y+4470400D01*
X+11277600Y+5461000D01*
X+11277600Y+5808980D01*
X+11899900Y+6431280D01*
X+9525000Y+5842000D02*
X+5689600Y+5842000D01*
X+5689600Y+5867400D01*
X+5715000Y+5892800D01*
X+5715000Y+5905500D01*
X+10033000Y+8445500D02*
X+10020300Y+8432800D01*
X+4950460Y+8432800D01*
X+4427220Y+8956040D01*
X+9017000Y+3556000D02*
X+5397500Y+3556000D01*
X+5270500Y+3429000D01*
X+8763000Y+6286500D02*
X+8731250Y+6254750D01*
X+5689600Y+6254750D01*
X+5588000Y+6356350D01*
X+5588000Y+8128000D01*
X+5486400Y+8229600D01*
X+2540000Y+8229600D01*
X+2438400Y+8331200D01*
X+2171700Y+8331200D01*
X+2159000Y+8318500D01*
X+1905000Y+8509000D02*
X+2540000Y+8509000D01*
X+2717800Y+8331200D01*
X+5791200Y+8331200D01*
X+5892800Y+8229600D01*
X+5892800Y+6604000D01*
X+5994400Y+6502400D01*
X+8013890Y+6502400D01*
X+8013890Y+6477000D01*
X+8001000Y+6477000D01*
X+7874000Y+762000D02*
X+7874000Y+1016000D01*
X+7315200Y+1016000D01*
X+6807200Y+1016000D02*
X+7315200Y+1016000D01*
X+6807200Y+1016000D02*
X+6350000Y+1016000D01*
X+6350000Y+762000D01*
X+7315200Y+914400D02*
X+7315200Y+1016000D01*
X+11557000Y+3937000D02*
X+10871200Y+3251200D01*
X+7924800Y+3251200D01*
X+8001000Y+2603500D02*
X+8001000Y+3175000D01*
X+7924800Y+3251200D01*
X+4935220Y+8956040D02*
X+5222520Y+8668740D01*
X+9329980Y+8668740D01*
X+1259000Y+2661500D02*
X+2694520Y+2661500D01*
X+3121660Y+3088640D01*
X+4589780Y+3502660D02*
X+4841240Y+3251200D01*
X+7924800Y+3251200D01*
X+12264000Y+2159000D02*
X+13649960Y+2159000D01*
X+13939520Y+2448560D01*
X+11899900Y+6939280D02*
X+11684000Y+6939280D01*
X+11592560Y+6847840D01*
X+10671860Y+6847840D01*
X+12661900Y+7193280D02*
X+13229540Y+7193280D01*
X+13543280Y+7507020D01*
X+4589780Y+3502660D02*
X+4175760Y+3088640D01*
X+3121660Y+3088640D01*
X+6807200Y+914400D02*
X+6807200Y+1016000D01*
X+7315200Y+914400D02*
X+7315200Y+863600D01*
X+7366000Y+812800D01*
X+7366000Y+762000D01*
X+6807200Y+914400D02*
X+6807200Y+863600D01*
X+6858000Y+812800D01*
X+6858000Y+762000D01*
X+12661900Y+6177280D02*
X+12679680Y+6195060D01*
X+13218260Y+6195060D01*
X+9519920Y+7932420D02*
X+9730740Y+7721600D01*
X+10452100Y+7721600D01*
X+10668000Y+7937500D01*
X+11112500Y+9080500D02*
X+11379200Y+9347200D01*
X+12280900Y+9347200D01*
X+12547600Y+9080500D01*
X+11899900Y+6939280D02*
X+12661900Y+6939280D01*
X+12264000Y+2159000D02*
X+12065000Y+2159000D01*
X+12534900Y+8712200D02*
X+12941300Y+8712200D01*
X+13309600Y+9080500D01*
X+11277600Y+4165600D02*
X+10693400Y+4165600D01*
X+10668000Y+4191000D01*
X+8216900Y+5161280D02*
X+8034020Y+4978400D01*
X+6565900Y+4978400D01*
X+5715000Y+4127500D01*
X+8216900Y+5161280D02*
X+9169400Y+5161280D01*
X+8216900Y+4729480D02*
X+7957820Y+4470400D01*
X+6311900Y+4470400D01*
X+5969000Y+4127500D01*
X+8216900Y+4729480D02*
X+8534400Y+4729480D01*
X+8536940Y+4726940D01*
X+9187180Y+4726940D01*
X+11480800Y+2413000D02*
X+11480800Y+2540000D01*
X+11684000Y+2540000D01*
X+11480800Y+2413000D02*
X+11684000Y+2413000D01*
X+11480800Y+2032000D02*
X+8229600Y+2032000D01*
X+8128000Y+1930400D01*
X+8128000Y+762000D01*
X+13939520Y+2948560D02*
X+14122400Y+2765680D01*
X+14122400Y+2032000D01*
X+14020800Y+1930400D01*
X+11582400Y+1930400D01*
X+11480800Y+2032000D01*
X+11480800Y+2336800D01*
X+11480800Y+2413000D01*
X+12192000Y+5778500D02*
X+12192000Y+5397500D01*
X+11874500Y+2286000D02*
X+11874500Y+2197100D01*
X+11836400Y+2159000D01*
X+11684000Y+2159000D01*
X+13296900Y+8712200D02*
X+13017500Y+8432800D01*
X+12146280Y+8432800D01*
X+11874500Y+8704580D01*
X+11874500Y+2286000D02*
X+11684000Y+2286000D01*
X+11557000Y+4337000D02*
X+11887200Y+4006800D01*
X+11887200Y+2540000D01*
X+12014200Y+2413000D01*
X+12264000Y+2413000D01*
X+11557000Y+4337000D02*
X+10509250Y+4337000D01*
X+10509250Y+4318000D01*
X+10541000Y+4318000D01*
X+10160000Y+4318000D02*
X+10109200Y+4368800D01*
X+6464300Y+4368800D01*
X+6223000Y+4127500D01*
X+10287000Y+7493000D02*
X+10261600Y+7518400D01*
X+6756400Y+7518400D01*
X+6731000Y+7493000D01*
X+9329980Y+9268740D02*
X+9855200Y+9268740D01*
X+10792740Y+8331200D01*
X+12285980Y+8331200D01*
X+12661900Y+7955280D01*
X+7620000Y+762000D02*
X+7620000Y+508000D01*
X+7721600Y+406400D01*
X+11379200Y+406400D01*
X+11557000Y+584200D01*
X+11557000Y+1524000D01*
X+12509500Y+4400500D02*
X+13125500Y+4400500D01*
X+13716000Y+3810000D01*
X+4681220Y+8956040D02*
X+4493260Y+9144000D01*
X+1567180Y+9144000D01*
X+1379220Y+8956040D01*
X+4681220Y+8956040D02*
X+4993920Y+9268740D01*
X+9329980Y+9268740D01*
X+2547620Y+3492500D02*
X+2166620Y+3111500D01*
X+1589000Y+3111500D01*
X+7747000Y+2603500D02*
X+7378700Y+2235200D01*
X+5224780Y+2235200D01*
X+4869180Y+2590800D01*
X+7493000Y+4127500D02*
X+7759700Y+3860800D01*
X+8001000Y+3860800D01*
X+8001000Y+4127500D01*
D11*
X+12509500Y+2540000D03*
X+12573000Y+2286000D03*
X+6286500Y+7112000D03*
X+6223000Y+3746500D03*
X+5715000Y+5905500D03*
X+9525000Y+5842000D03*
X+10033000Y+8445500D03*
X+5270500Y+3429000D03*
X+9017000Y+3556000D03*
X+2159000Y+8318500D03*
X+8763000Y+6286500D03*
X+8001000Y+6477000D03*
X+1905000Y+8509000D03*
X+12065000Y+2159000D03*
X+10668000Y+4191000D03*
X+11277600Y+4165600D03*
X+12192000Y+5397500D03*
X+12192000Y+5778500D03*
X+11874500Y+2286000D03*
X+10541000Y+4318000D03*
X+10160000Y+4318000D03*
X+6731000Y+7493000D03*
X+10287000Y+7493000D03*
D10*
X+14045770Y+9434201D02*
X+14089862Y+9427689D01*
X+14132134Y+9417117D01*
X+14172433Y+9402694D01*
X+14210598Y+9384625D01*
X+14246454Y+9363109D01*
X+14279822Y+9338340D01*
X+14310514Y+9310514D01*
X+14338340Y+9279822D01*
X+14363110Y+9246453D01*
X+14384626Y+9210598D01*
X+14402694Y+9172434D01*
X+14417117Y+9132134D01*
X+14427689Y+9089862D01*
X+14434201Y+9045770D01*
X+14436500Y+8998458D01*
X+14436500Y+501542D01*
X+14434201Y+454230D01*
X+14427689Y+410138D01*
X+14417117Y+367866D01*
X+14402694Y+327566D01*
X+14384626Y+289402D01*
X+14363110Y+253547D01*
X+14338340Y+220178D01*
X+14310514Y+189486D01*
X+14279822Y+161660D01*
X+14246454Y+136891D01*
X+14210598Y+115375D01*
X+14172433Y+97306D01*
X+14132134Y+82883D01*
X+14089862Y+72311D01*
X+14045770Y+65799D01*
X+13998458Y+63500D01*
X+501542Y+63500D01*
X+454230Y+65799D01*
X+410138Y+72311D01*
X+367866Y+82883D01*
X+327567Y+97306D01*
X+289402Y+115375D01*
X+253546Y+136891D01*
X+220178Y+161660D01*
X+189486Y+189486D01*
X+161660Y+220178D01*
X+136890Y+253547D01*
X+115374Y+289402D01*
X+97306Y+327566D01*
X+82883Y+367866D01*
X+72311Y+410138D01*
X+65799Y+454230D01*
X+63500Y+501542D01*
X+63500Y+8998458D01*
X+65799Y+9045770D01*
X+72311Y+9089862D01*
X+82883Y+9132134D01*
X+97306Y+9172434D01*
X+115374Y+9210598D01*
X+136890Y+9246453D01*
X+161660Y+9279822D01*
X+189486Y+9310514D01*
X+220178Y+9338340D01*
X+253546Y+9363109D01*
X+289402Y+9384625D01*
X+327567Y+9402694D01*
X+367866Y+9417117D01*
X+410138Y+9427689D01*
X+454230Y+9434201D01*
X+501542Y+9436500D01*
X+9246294Y+9436500D01*
X+9152181Y+9342387D01*
X+9152181Y+9195093D01*
X+9256333Y+9090941D01*
X+9403627Y+9090941D01*
X+9507779Y+9195093D01*
X+9507779Y+9342387D01*
X+9413666Y+9436500D01*
X+11324818Y+9436500D01*
X+11146617Y+9258299D01*
X+11038853Y+9258299D01*
X+10934701Y+9154147D01*
X+10934701Y+9006853D01*
X+11038853Y+8902701D01*
X+11186147Y+8902701D01*
X+11290299Y+9006853D01*
X+11290299Y+9114617D01*
X+11421283Y+9245601D01*
X+11788155Y+9245601D01*
X+11696701Y+9154147D01*
X+11696701Y+9006853D01*
X+11800853Y+8902701D01*
X+11948147Y+8902701D01*
X+12052299Y+9006853D01*
X+12052299Y+9154147D01*
X+11960845Y+9245601D01*
X+12238817Y+9245601D01*
X+12369801Y+9114617D01*
X+12369801Y+9006853D01*
X+12473953Y+8902701D01*
X+12621247Y+8902701D01*
X+12725399Y+9006853D01*
X+12725399Y+9154147D01*
X+12621247Y+9258299D01*
X+12513483Y+9258299D01*
X+12335282Y+9436500D01*
X+13998458Y+9436500D01*
X+14045770Y+9434201D01*
X+5113019Y+9029687D02*
X+5113019Y+8921923D01*
X+5264603Y+8770339D01*
X+9180133Y+8770339D01*
X+9256333Y+8846539D01*
X+9403627Y+8846539D01*
X+9507779Y+8742387D01*
X+9507779Y+8595093D01*
X+9447085Y+8534399D01*
X+9960256Y+8534399D01*
X+9985656Y+8559799D01*
X+10080344Y+8559799D01*
X+10147299Y+8492844D01*
X+10147299Y+8398156D01*
X+10080344Y+8331201D01*
X+5934881Y+8331201D01*
X+5994399Y+8271683D01*
X+5994399Y+6646083D01*
X+6036483Y+6603999D01*
X+6053919Y+6603999D01*
X+5994401Y+6663517D01*
X+5994401Y+8170083D01*
X+6155517Y+8331199D01*
X+12132483Y+8331199D01*
X+12293599Y+8170083D01*
X+12293599Y+7951297D01*
X+12077699Y+7735397D01*
X+12077699Y+7627633D01*
X+12024346Y+7574280D01*
X+12077699Y+7520927D01*
X+12077699Y+7373633D01*
X+12024346Y+7320280D01*
X+12077699Y+7266927D01*
X+12077699Y+7119633D01*
X+12024346Y+7066280D01*
X+12049747Y+7040879D01*
X+12512053Y+7040879D01*
X+12537454Y+7066280D01*
X+12484101Y+7119633D01*
X+12484101Y+7266927D01*
X+12537454Y+7320280D01*
X+12484101Y+7373633D01*
X+12484101Y+7520927D01*
X+12537454Y+7574280D01*
X+12484101Y+7627633D01*
X+12484101Y+7774927D01*
X+12537454Y+7828280D01*
X+12484101Y+7881633D01*
X+12484101Y+8028927D01*
X+12588253Y+8133079D01*
X+12735547Y+8133079D01*
X+12839699Y+8028927D01*
X+12839699Y+7881633D01*
X+12786346Y+7828280D01*
X+12839699Y+7774927D01*
X+12839699Y+7627633D01*
X+12786346Y+7574280D01*
X+12839699Y+7520927D01*
X+12839699Y+7373633D01*
X+12786346Y+7320280D01*
X+12811747Y+7294879D01*
X+13187457Y+7294879D01*
X+13365481Y+7472903D01*
X+13365481Y+7580667D01*
X+13469633Y+7684819D01*
X+13616927Y+7684819D01*
X+13721079Y+7580667D01*
X+13721079Y+7433373D01*
X+13616927Y+7329221D01*
X+13509163Y+7329221D01*
X+13271623Y+7091681D01*
X+12811747Y+7091681D01*
X+12786346Y+7066280D01*
X+12839699Y+7012927D01*
X+12839699Y+6865633D01*
X+12786346Y+6812280D01*
X+12839699Y+6758927D01*
X+12839699Y+6611633D01*
X+12786346Y+6558280D01*
X+12839699Y+6504927D01*
X+12839699Y+6357633D01*
X+12786346Y+6304280D01*
X+12793967Y+6296659D01*
X+13068413Y+6296659D01*
X+13144613Y+6372859D01*
X+13291907Y+6372859D01*
X+13396059Y+6268707D01*
X+13396059Y+6121413D01*
X+13291907Y+6017261D01*
X+13144613Y+6017261D01*
X+13068413Y+6093461D01*
X+12829527Y+6093461D01*
X+12735547Y+5999481D01*
X+12588253Y+5999481D01*
X+12484101Y+6103633D01*
X+12484101Y+6250927D01*
X+12537454Y+6304280D01*
X+12484101Y+6357633D01*
X+12484101Y+6504927D01*
X+12537454Y+6558280D01*
X+12484101Y+6611633D01*
X+12484101Y+6758927D01*
X+12537454Y+6812280D01*
X+12512053Y+6837681D01*
X+12049747Y+6837681D01*
X+12024346Y+6812280D01*
X+12077699Y+6758927D01*
X+12077699Y+6611633D01*
X+12024346Y+6558280D01*
X+12077699Y+6504927D01*
X+12077699Y+6357633D01*
X+12024346Y+6304280D01*
X+12077699Y+6250927D01*
X+12077699Y+6103633D01*
X+11973547Y+5999481D01*
X+11826253Y+5999481D01*
X+11722101Y+6103633D01*
X+11722101Y+6109799D01*
X+11379199Y+5766897D01*
X+11379199Y+5418917D01*
X+10388599Y+4428317D01*
X+10388599Y+4277347D01*
X+10464799Y+4201147D01*
X+10464799Y+4053853D01*
X+10360647Y+3949701D01*
X+10213353Y+3949701D01*
X+10160000Y+4003054D01*
X+10106647Y+3949701D01*
X+9959353Y+3949701D01*
X+9906000Y+4003054D01*
X+9852647Y+3949701D01*
X+9705353Y+3949701D01*
X+9652000Y+4003054D01*
X+9598647Y+3949701D01*
X+9451353Y+3949701D01*
X+9398000Y+4003054D01*
X+9344647Y+3949701D01*
X+9197353Y+3949701D01*
X+9144000Y+4003054D01*
X+9090647Y+3949701D01*
X+8943353Y+3949701D01*
X+8890000Y+4003054D01*
X+8836647Y+3949701D01*
X+8689353Y+3949701D01*
X+8636000Y+4003054D01*
X+8582647Y+3949701D01*
X+8435353Y+3949701D01*
X+8382000Y+4003054D01*
X+8328647Y+3949701D01*
X+8181353Y+3949701D01*
X+8128000Y+4003054D01*
X+8074647Y+3949701D01*
X+7927353Y+3949701D01*
X+7874000Y+4003054D01*
X+7820647Y+3949701D01*
X+7673353Y+3949701D01*
X+7620000Y+4003054D01*
X+7566647Y+3949701D01*
X+7419353Y+3949701D01*
X+7366000Y+4003054D01*
X+7312647Y+3949701D01*
X+7165353Y+3949701D01*
X+7112000Y+4003054D01*
X+7058647Y+3949701D01*
X+6911353Y+3949701D01*
X+6858000Y+4003054D01*
X+6804647Y+3949701D01*
X+6657353Y+3949701D01*
X+6604000Y+4003054D01*
X+6550647Y+3949701D01*
X+6403353Y+3949701D01*
X+6350000Y+4003054D01*
X+6296647Y+3949701D01*
X+6149353Y+3949701D01*
X+6096000Y+4003054D01*
X+6042647Y+3949701D01*
X+5895353Y+3949701D01*
X+5842000Y+4003054D01*
X+5788647Y+3949701D01*
X+5641353Y+3949701D01*
X+5588000Y+4003054D01*
X+5534647Y+3949701D01*
X+5387353Y+3949701D01*
X+5384799Y+3952255D01*
X+5384799Y+3858433D01*
X+5426883Y+3816349D01*
X+6131206Y+3816349D01*
X+6175656Y+3860799D01*
X+6270344Y+3860799D01*
X+6337299Y+3793844D01*
X+6337299Y+3699156D01*
X+6295742Y+3657599D01*
X+8956956Y+3657599D01*
X+8969656Y+3670299D01*
X+9064344Y+3670299D01*
X+9131299Y+3603344D01*
X+9131299Y+3508656D01*
X+9064344Y+3441701D01*
X+8969656Y+3441701D01*
X+8956956Y+3454401D01*
X+5439583Y+3454401D01*
X+5384799Y+3399617D01*
X+5384799Y+3381656D01*
X+5355942Y+3352799D01*
X+10829117Y+3352799D01*
X+11379201Y+3902883D01*
X+11379201Y+4010647D01*
X+11483353Y+4114799D01*
X+11630647Y+4114799D01*
X+11734799Y+4010647D01*
X+11734799Y+3863353D01*
X+11630647Y+3759201D01*
X+11522883Y+3759201D01*
X+10913283Y+3149601D01*
X+8102599Y+3149601D01*
X+8102599Y+2753347D01*
X+8128000Y+2727946D01*
X+8181353Y+2781299D01*
X+8328647Y+2781299D01*
X+8382000Y+2727946D01*
X+8435353Y+2781299D01*
X+8582647Y+2781299D01*
X+8636000Y+2727946D01*
X+8689353Y+2781299D01*
X+8836647Y+2781299D01*
X+8890000Y+2727946D01*
X+8943353Y+2781299D01*
X+9090647Y+2781299D01*
X+9144000Y+2727946D01*
X+9197353Y+2781299D01*
X+9344647Y+2781299D01*
X+9398000Y+2727946D01*
X+9451353Y+2781299D01*
X+9598647Y+2781299D01*
X+9652000Y+2727946D01*
X+9705353Y+2781299D01*
X+9852647Y+2781299D01*
X+9906000Y+2727946D01*
X+9959353Y+2781299D01*
X+10106647Y+2781299D01*
X+10160000Y+2727946D01*
X+10213353Y+2781299D01*
X+10360647Y+2781299D01*
X+10464799Y+2677147D01*
X+10464799Y+2529853D01*
X+10360647Y+2425701D01*
X+10213353Y+2425701D01*
X+10160000Y+2479054D01*
X+10106647Y+2425701D01*
X+9959353Y+2425701D01*
X+9906000Y+2479054D01*
X+9852647Y+2425701D01*
X+9705353Y+2425701D01*
X+9652000Y+2479054D01*
X+9598647Y+2425701D01*
X+9451353Y+2425701D01*
X+9398000Y+2479054D01*
X+9344647Y+2425701D01*
X+9197353Y+2425701D01*
X+9144000Y+2479054D01*
X+9090647Y+2425701D01*
X+8943353Y+2425701D01*
X+8890000Y+2479054D01*
X+8836647Y+2425701D01*
X+8689353Y+2425701D01*
X+8636000Y+2479054D01*
X+8582647Y+2425701D01*
X+8435353Y+2425701D01*
X+8382000Y+2479054D01*
X+8328647Y+2425701D01*
X+8181353Y+2425701D01*
X+8128000Y+2479054D01*
X+8074647Y+2425701D01*
X+7927353Y+2425701D01*
X+7874000Y+2479054D01*
X+7820647Y+2425701D01*
X+7673353Y+2425701D01*
X+7620000Y+2479054D01*
X+7566647Y+2425701D01*
X+7419353Y+2425701D01*
X+7366000Y+2479054D01*
X+7312647Y+2425701D01*
X+7165353Y+2425701D01*
X+7112000Y+2479054D01*
X+7058647Y+2425701D01*
X+6911353Y+2425701D01*
X+6858000Y+2479054D01*
X+6804647Y+2425701D01*
X+6657353Y+2425701D01*
X+6604000Y+2479054D01*
X+6550647Y+2425701D01*
X+6403353Y+2425701D01*
X+6350000Y+2479054D01*
X+6296647Y+2425701D01*
X+6149353Y+2425701D01*
X+6096000Y+2479054D01*
X+6042647Y+2425701D01*
X+5895353Y+2425701D01*
X+5842000Y+2479054D01*
X+5788647Y+2425701D01*
X+5641353Y+2425701D01*
X+5588000Y+2479054D01*
X+5534647Y+2425701D01*
X+5387353Y+2425701D01*
X+5283201Y+2529853D01*
X+5283201Y+2677147D01*
X+5349255Y+2743201D01*
X+4968225Y+2743201D01*
X+5046979Y+2664447D01*
X+5046979Y+2517153D01*
X+4942827Y+2413001D01*
X+4795533Y+2413001D01*
X+4691381Y+2517153D01*
X+4691381Y+2664447D01*
X+4770135Y+2743201D01*
X+4149263Y+2743201D01*
X+4030979Y+2624917D01*
X+4030979Y+2517153D01*
X+3926827Y+2413001D01*
X+3779533Y+2413001D01*
X+3675381Y+2517153D01*
X+3675381Y+2664447D01*
X+3779533Y+2768599D01*
X+3887297Y+2768599D01*
X+4065097Y+2946399D01*
X+7293783Y+2946399D01*
X+7458883Y+2781299D01*
X+7566647Y+2781299D01*
X+7620000Y+2727946D01*
X+7673353Y+2781299D01*
X+7820647Y+2781299D01*
X+7874000Y+2727946D01*
X+7899401Y+2753347D01*
X+7899401Y+3132917D01*
X+7882717Y+3149601D01*
X+4799157Y+3149601D01*
X+4623897Y+3324861D01*
X+4555663Y+3324861D01*
X+4217843Y+2987041D01*
X+3271507Y+2987041D01*
X+3195307Y+2910841D01*
X+3087543Y+2910841D01*
X+2736603Y+2559901D01*
X+1563799Y+2559901D01*
X+1563799Y+2407501D01*
X+954201Y+2407501D01*
X+954201Y+2806701D01*
X+635001Y+2806701D01*
X+635001Y+3416299D01*
X+1142999Y+3416299D01*
X+1142999Y+2915499D01*
X+1335001Y+2915499D01*
X+1335001Y+3416299D01*
X+1842999Y+3416299D01*
X+1842999Y+2806701D01*
X+1563799Y+2806701D01*
X+1563799Y+2763099D01*
X+2652437Y+2763099D01*
X+2943861Y+3054523D01*
X+2943861Y+3162287D01*
X+3048013Y+3266439D01*
X+3195307Y+3266439D01*
X+3271507Y+3190239D01*
X+4133677Y+3190239D01*
X+4411981Y+3468543D01*
X+4411981Y+3576307D01*
X+4516133Y+3680459D01*
X+4663427Y+3680459D01*
X+4767579Y+3576307D01*
X+4767579Y+3468543D01*
X+4883323Y+3352799D01*
X+5185058Y+3352799D01*
X+5156201Y+3381656D01*
X+5156201Y+3476344D01*
X+5223156Y+3543299D01*
X+5241117Y+3543299D01*
X+5326843Y+3629025D01*
X+5181601Y+3774267D01*
X+5181601Y+6036483D01*
X+5342717Y+6197599D01*
X+5603069Y+6197599D01*
X+5486401Y+6314267D01*
X+5486401Y+8085917D01*
X+5444317Y+8128001D01*
X+2497917Y+8128001D01*
X+2396317Y+8229601D01*
X+2231744Y+8229601D01*
X+2206344Y+8204201D01*
X+2111656Y+8204201D01*
X+2044701Y+8271156D01*
X+2044701Y+8365844D01*
X+2086258Y+8407401D01*
X+1965044Y+8407401D01*
X+1952344Y+8394701D01*
X+1857656Y+8394701D01*
X+1790701Y+8461656D01*
X+1790701Y+8556344D01*
X+1857656Y+8623299D01*
X+1952344Y+8623299D01*
X+1965044Y+8610599D01*
X+2582083Y+8610599D01*
X+2759883Y+8432799D01*
X+4806779Y+8432799D01*
X+4461337Y+8778241D01*
X+4353573Y+8778241D01*
X+4300220Y+8831594D01*
X+4246867Y+8778241D01*
X+4099573Y+8778241D01*
X+4046220Y+8831594D01*
X+3992867Y+8778241D01*
X+3845573Y+8778241D01*
X+3792220Y+8831594D01*
X+3738867Y+8778241D01*
X+3591573Y+8778241D01*
X+3538220Y+8831594D01*
X+3484867Y+8778241D01*
X+3337573Y+8778241D01*
X+3284220Y+8831594D01*
X+3230867Y+8778241D01*
X+3083573Y+8778241D01*
X+3030220Y+8831594D01*
X+2976867Y+8778241D01*
X+2829573Y+8778241D01*
X+2776220Y+8831594D01*
X+2722867Y+8778241D01*
X+2575573Y+8778241D01*
X+2522220Y+8831594D01*
X+2468867Y+8778241D01*
X+2321573Y+8778241D01*
X+2268220Y+8831594D01*
X+2214867Y+8778241D01*
X+2067573Y+8778241D01*
X+2014220Y+8831594D01*
X+1960867Y+8778241D01*
X+1813573Y+8778241D01*
X+1760220Y+8831594D01*
X+1706867Y+8778241D01*
X+1559573Y+8778241D01*
X+1506220Y+8831594D01*
X+1452867Y+8778241D01*
X+1305573Y+8778241D01*
X+1252220Y+8831594D01*
X+1198867Y+8778241D01*
X+1051573Y+8778241D01*
X+947421Y+8882393D01*
X+947421Y+9029687D01*
X+1051573Y+9133839D01*
X+1198867Y+9133839D01*
X+1252220Y+9080486D01*
X+1305573Y+9133839D01*
X+1452867Y+9133839D01*
X+1506220Y+9080486D01*
X+1559573Y+9133839D01*
X+1706867Y+9133839D01*
X+1760220Y+9080486D01*
X+1813573Y+9133839D01*
X+1960867Y+9133839D01*
X+2014220Y+9080486D01*
X+2067573Y+9133839D01*
X+2214867Y+9133839D01*
X+2268220Y+9080486D01*
X+2321573Y+9133839D01*
X+2468867Y+9133839D01*
X+2522220Y+9080486D01*
X+2575573Y+9133839D01*
X+2722867Y+9133839D01*
X+2776220Y+9080486D01*
X+2829573Y+9133839D01*
X+2976867Y+9133839D01*
X+3030220Y+9080486D01*
X+3083573Y+9133839D01*
X+3230867Y+9133839D01*
X+3284220Y+9080486D01*
X+3337573Y+9133839D01*
X+3484867Y+9133839D01*
X+3538220Y+9080486D01*
X+3591573Y+9133839D01*
X+3738867Y+9133839D01*
X+3792220Y+9080486D01*
X+3845573Y+9133839D01*
X+3992867Y+9133839D01*
X+4046220Y+9080486D01*
X+4099573Y+9133839D01*
X+4246867Y+9133839D01*
X+4300220Y+9080486D01*
X+4353573Y+9133839D01*
X+4500867Y+9133839D01*
X+4554220Y+9080486D01*
X+4607573Y+9133839D01*
X+4754867Y+9133839D01*
X+4808220Y+9080486D01*
X+4861573Y+9133839D01*
X+5008867Y+9133839D01*
X+5113019Y+9029687D01*
X+8907779Y+9042387D02*
X+8907779Y+8895093D01*
X+8803627Y+8790941D01*
X+8656333Y+8790941D01*
X+8552181Y+8895093D01*
X+8552181Y+9042387D01*
X+8656333Y+9146539D01*
X+8803627Y+9146539D01*
X+8907779Y+9042387D01*
X+13365481Y+7833373D02*
X+13365481Y+7980667D01*
X+13469633Y+8084819D01*
X+13616927Y+8084819D01*
X+13721079Y+7980667D01*
X+13721079Y+7833373D01*
X+13616927Y+7729221D01*
X+13469633Y+7729221D01*
X+13365481Y+7833373D01*
X+11633201Y+561353D02*
X+11633201Y+708647D01*
X+11737353Y+812799D01*
X+11884647Y+812799D01*
X+11988799Y+708647D01*
X+11988799Y+561353D01*
X+11884647Y+457201D01*
X+11737353Y+457201D01*
X+11633201Y+561353D01*
X+12133201Y+561353D02*
X+12133201Y+708647D01*
X+12237353Y+812799D01*
X+12384647Y+812799D01*
X+12488799Y+708647D01*
X+12488799Y+561353D01*
X+12384647Y+457201D01*
X+12237353Y+457201D01*
X+12133201Y+561353D01*
X+4367579Y+3576307D02*
X+4367579Y+3429013D01*
X+4263427Y+3324861D01*
X+4116133Y+3324861D01*
X+4011981Y+3429013D01*
X+4011981Y+3576307D01*
X+4116133Y+3680459D01*
X+4263427Y+3680459D01*
X+4367579Y+3576307D01*
X+11734799Y+4410647D02*
X+11734799Y+4302883D01*
X+11988799Y+4048883D01*
X+11988799Y+2582083D01*
X+12056283Y+2514599D01*
X+12117951Y+2514599D01*
X+12117951Y+2646679D01*
X+12410049Y+2646679D01*
X+12410049Y+2641599D01*
X+12449456Y+2641599D01*
X+12462156Y+2654299D01*
X+12556844Y+2654299D01*
X+12623799Y+2587344D01*
X+12623799Y+2492656D01*
X+12556844Y+2425701D01*
X+12462156Y+2425701D01*
X+12449456Y+2438401D01*
X+12410049Y+2438401D01*
X+12410049Y+2387599D01*
X+12512956Y+2387599D01*
X+12525656Y+2400299D01*
X+12620344Y+2400299D01*
X+12687299Y+2333344D01*
X+12687299Y+2260599D01*
X+13607877Y+2260599D01*
X+13761721Y+2414443D01*
X+13761721Y+2522207D01*
X+13865873Y+2626359D01*
X+14013167Y+2626359D01*
X+14020801Y+2618725D01*
X+14020801Y+2723597D01*
X+13973637Y+2770761D01*
X+13865873Y+2770761D01*
X+13761721Y+2874913D01*
X+13761721Y+3022207D01*
X+13865873Y+3126359D01*
X+14013167Y+3126359D01*
X+14117319Y+3022207D01*
X+14117319Y+2914443D01*
X+14223999Y+2807763D01*
X+14223999Y+1989917D01*
X+14062883Y+1828801D01*
X+11540317Y+1828801D01*
X+11438717Y+1930401D01*
X+8271683Y+1930401D01*
X+8229599Y+1888317D01*
X+8229599Y+965199D01*
X+8280399Y+965199D01*
X+8280399Y+558801D01*
X+6197601Y+558801D01*
X+6197601Y+965199D01*
X+6248401Y+965199D01*
X+6248401Y+1058083D01*
X+6307917Y+1117599D01*
X+7916083Y+1117599D01*
X+7975599Y+1058083D01*
X+7975599Y+965199D01*
X+8026401Y+965199D01*
X+8026401Y+1972483D01*
X+8187517Y+2133599D01*
X+11379201Y+2133599D01*
X+11379201Y+2582083D01*
X+11438717Y+2641599D01*
X+11537951Y+2641599D01*
X+11537951Y+2646679D01*
X+11785601Y+2646679D01*
X+11785601Y+3964717D01*
X+11591117Y+4159201D01*
X+11483353Y+4159201D01*
X+11407153Y+4235401D01*
X+11369442Y+4235401D01*
X+11391899Y+4212944D01*
X+11391899Y+4118256D01*
X+11324944Y+4051301D01*
X+11230256Y+4051301D01*
X+11217556Y+4064001D01*
X+10651317Y+4064001D01*
X+10638617Y+4076701D01*
X+10620656Y+4076701D01*
X+10553701Y+4143656D01*
X+10553701Y+4203701D01*
X+10493656Y+4203701D01*
X+10480956Y+4216401D01*
X+10467167Y+4216401D01*
X+10407651Y+4275917D01*
X+10407651Y+4379083D01*
X+10467167Y+4438599D01*
X+11407153Y+4438599D01*
X+11483353Y+4514799D01*
X+11630647Y+4514799D01*
X+11734799Y+4410647D01*
X+13796059Y+6268707D02*
X+13796059Y+6121413D01*
X+13691907Y+6017261D01*
X+13544613Y+6017261D01*
X+13440461Y+6121413D01*
X+13440461Y+6268707D01*
X+13544613Y+6372859D01*
X+13691907Y+6372859D01*
X+13796059Y+6268707D01*
X+2692399Y+1206126D02*
X+2692399Y+1079874D01*
X+2628525Y+1016000D01*
X+2692399Y+952126D01*
X+2692399Y+825874D01*
X+2603126Y+736601D01*
X+2531283Y+736601D01*
X+2302683Y+508001D01*
X+1857837Y+508001D01*
X+1572087Y+793751D01*
X+1491264Y+793751D01*
X+1398271Y+886744D01*
X+1398271Y+1018256D01*
X+1491264Y+1111249D01*
X+1622776Y+1111249D01*
X+1681480Y+1052545D01*
X+1740184Y+1111249D01*
X+1871696Y+1111249D01*
X+1964689Y+1018256D01*
X+1964689Y+886744D01*
X+1871696Y+793751D01*
X+1859451Y+793751D01*
X+1942003Y+711199D01*
X+2218517Y+711199D01*
X+2387601Y+880283D01*
X+2387601Y+952126D01*
X+2451475Y+1016000D01*
X+2387601Y+1079874D01*
X+2387601Y+1206126D01*
X+2476874Y+1295399D01*
X+2603126Y+1295399D01*
X+2692399Y+1206126D01*
X+1964689Y+1338296D02*
X+1964689Y+1206784D01*
X+1871696Y+1113791D01*
X+1740184Y+1113791D01*
X+1681480Y+1172495D01*
X+1622776Y+1113791D01*
X+1491264Y+1113791D01*
X+1398271Y+1206784D01*
X+1398271Y+1338296D01*
X+1491264Y+1431289D01*
X+1622776Y+1431289D01*
X+1681480Y+1372585D01*
X+1740184Y+1431289D01*
X+1871696Y+1431289D01*
X+1964689Y+1338296D01*
X+1104901Y+1619811D02*
X+1104901Y+1809189D01*
X+1238811Y+1943099D01*
X+1428189Y+1943099D01*
X+1562099Y+1809189D01*
X+1562099Y+1619811D01*
X+1428189Y+1485901D01*
X+1238811Y+1485901D01*
X+1104901Y+1619811D01*
X+1104901Y+415851D02*
X+1104901Y+605229D01*
X+1238811Y+739139D01*
X+1428189Y+739139D01*
X+1562099Y+605229D01*
X+1562099Y+415851D01*
X+1428189Y+281941D01*
X+1238811Y+281941D01*
X+1104901Y+415851D01*
X+12583147Y+3822701D02*
X+12435853Y+3822701D01*
X+12331701Y+3926853D01*
X+12331701Y+4074147D01*
X+12435853Y+4178299D01*
X+12583147Y+4178299D01*
X+12687299Y+4074147D01*
X+12687299Y+3926853D01*
X+12583147Y+3822701D01*
X+12583147Y+4222701D02*
X+12435853Y+4222701D01*
X+12331701Y+4326853D01*
X+12331701Y+4474147D01*
X+12435853Y+4578299D01*
X+12583147Y+4578299D01*
X+12687299Y+4474147D01*
X+12687299Y+4326853D01*
X+12583147Y+4222701D01*
X+13487399Y+9154147D02*
X+13487399Y+9006853D01*
X+13383247Y+8902701D01*
X+13275483Y+8902701D01*
X+13262781Y+8889999D01*
X+13370547Y+8889999D01*
X+13474699Y+8785847D01*
X+13474699Y+8638553D01*
X+13370547Y+8534401D01*
X+13262783Y+8534401D01*
X+13059583Y+8331201D01*
X+12104197Y+8331201D01*
X+11908617Y+8526781D01*
X+11800853Y+8526781D01*
X+11696701Y+8630933D01*
X+11696701Y+8778227D01*
X+11800853Y+8882379D01*
X+11948147Y+8882379D01*
X+12052299Y+8778227D01*
X+12052299Y+8670463D01*
X+12188363Y+8534399D01*
X+12975417Y+8534399D01*
X+13119101Y+8678083D01*
X+13119101Y+8746319D01*
X+12983383Y+8610601D01*
X+12684747Y+8610601D01*
X+12608547Y+8534401D01*
X+12461253Y+8534401D01*
X+12357101Y+8638553D01*
X+12357101Y+8785847D01*
X+12461253Y+8889999D01*
X+12608547Y+8889999D01*
X+12684747Y+8813799D01*
X+12899217Y+8813799D01*
X+13131801Y+9046383D01*
X+13131801Y+9154147D01*
X+13235953Y+9258299D01*
X+13383247Y+9258299D01*
X+13487399Y+9154147D01*
X+10934701Y+8630933D02*
X+10934701Y+8778227D01*
X+11038853Y+8882379D01*
X+11186147Y+8882379D01*
X+11290299Y+8778227D01*
X+11290299Y+8630933D01*
X+11186147Y+8526781D01*
X+11038853Y+8526781D01*
X+10934701Y+8630933D01*
X+10693399Y+558801D02*
X+8610601Y+558801D01*
X+8610601Y+965199D01*
X+10693399Y+965199D01*
X+10693399Y+558801D01*
X+5867399Y+558801D02*
X+3784601Y+558801D01*
X+3784601Y+965199D01*
X+5867399Y+965199D01*
X+5867399Y+558801D01*
X+14147799Y+3883647D02*
X+14147799Y+3736353D01*
X+14043647Y+3632201D01*
X+13896353Y+3632201D01*
X+13843000Y+3685554D01*
X+13789647Y+3632201D01*
X+13642353Y+3632201D01*
X+13538201Y+3736353D01*
X+13538201Y+3883647D01*
X+13642353Y+3987799D01*
X+13789647Y+3987799D01*
X+13843000Y+3934446D01*
X+13896353Y+3987799D01*
X+14043647Y+3987799D01*
X+14147799Y+3883647D01*
X+11379201Y+1450353D02*
X+11379201Y+1597647D01*
X+11483353Y+1701799D01*
X+11630647Y+1701799D01*
X+11734799Y+1597647D01*
X+11734799Y+1450353D01*
X+11630647Y+1346201D01*
X+11483353Y+1346201D01*
X+11379201Y+1450353D01*
X+12395201Y+1450353D02*
X+12395201Y+1597647D01*
X+12499353Y+1701799D01*
X+12646647Y+1701799D01*
X+12750799Y+1597647D01*
X+12750799Y+1450353D01*
X+12646647Y+1346201D01*
X+12499353Y+1346201D01*
X+12395201Y+1450353D01*
X+2725419Y+3568701D02*
X+2725419Y+3314701D01*
X+2369821Y+3314701D01*
X+2369821Y+3924299D01*
X+2725419Y+3924299D01*
X+2725419Y+3568701D01*
X+3048013Y+4282439D02*
X+3195307Y+4282439D01*
X+3299459Y+4178287D01*
X+3299459Y+4030993D01*
X+3195307Y+3926841D01*
X+3048013Y+3926841D01*
X+2943861Y+4030993D01*
X+2943861Y+4178287D01*
X+3048013Y+4282439D01*
X+12306299Y+5825844D02*
X+12306299Y+5731156D01*
X+12293599Y+5718456D01*
X+12293599Y+5457544D01*
X+12306299Y+5444844D01*
X+12306299Y+5350156D01*
X+12239344Y+5283201D01*
X+12144656Y+5283201D01*
X+12077701Y+5350156D01*
X+12077701Y+5444844D01*
X+12090401Y+5457544D01*
X+12090401Y+5718456D01*
X+12077701Y+5731156D01*
X+12077701Y+5825844D01*
X+12144656Y+5892799D01*
X+12239344Y+5892799D01*
X+12306299Y+5825844D01*
D12*
X+1379220Y+8778241D02*
X+1379220Y+8956040D01*
X+1379220Y+9133839D02*
X+1379220Y+8956040D01*
X+4681220Y+9133839D02*
X+4681220Y+8956040D01*
X+7747000Y+2425701D02*
X+7747000Y+2603500D01*
X+7747000Y+2781299D02*
X+7747000Y+2603500D01*
X+8001000Y+3949701D02*
X+8001000Y+4127500D01*
X+7493000Y+3949701D02*
X+7493000Y+4127500D01*
X+9507779Y+9268740D02*
X+9329980Y+9268740D01*
X+9152181Y+9268740D02*
X+9329980Y+9268740D01*
X+9329980Y+9090941D02*
X+9329980Y+9268740D01*
X+1842999Y+3111500D02*
X+1589000Y+3111500D01*
X+1335001Y+3111500D02*
X+1589000Y+3111500D01*
X+1589000Y+3416299D02*
X+1589000Y+3111500D01*
X+1589000Y+2806701D02*
X+1589000Y+3111500D01*
X+13365481Y+7907020D02*
X+13543280Y+7907020D01*
X+13721079Y+7907020D02*
X+13543280Y+7907020D01*
X+13543280Y+7729221D02*
X+13543280Y+7907020D01*
X+13543280Y+8084819D02*
X+13543280Y+7907020D01*
X+12661900Y+8133079D02*
X+12661900Y+7955280D01*
X+12484101Y+7955280D02*
X+12661900Y+7955280D01*
X+12839699Y+7955280D02*
X+12661900Y+7955280D01*
X+4691381Y+2590800D02*
X+4869180Y+2590800D01*
X+5046979Y+2590800D02*
X+4869180Y+2590800D01*
X+4869180Y+2413001D02*
X+4869180Y+2590800D01*
X+12509500Y+4222701D02*
X+12509500Y+4400500D01*
X+12509500Y+4578299D02*
X+12509500Y+4400500D01*
X+12687299Y+4400500D02*
X+12509500Y+4400500D01*
X+12331701Y+4400500D02*
X+12509500Y+4400500D01*
X+6604000Y+558801D02*
X+6604000Y+762000D01*
X+7112000Y+558801D02*
X+7112000Y+762000D01*
X+7620000Y+558801D02*
X+7620000Y+762000D01*
X+13538201Y+3810000D02*
X+13716000Y+3810000D01*
X+13716000Y+3632201D02*
X+13716000Y+3810000D01*
X+13716000Y+3987799D02*
X+13716000Y+3810000D01*
X+2540000Y+1295399D02*
X+2540000Y+1143000D01*
X+2387601Y+1143000D02*
X+2540000Y+1143000D01*
X+2692399Y+1143000D02*
X+2540000Y+1143000D01*
X+11379201Y+1524000D02*
X+11557000Y+1524000D01*
X+11734799Y+1524000D02*
X+11557000Y+1524000D01*
X+11557000Y+1346201D02*
X+11557000Y+1524000D01*
X+11557000Y+1701799D02*
X+11557000Y+1524000D01*
X+2547620Y+3314701D02*
X+2547620Y+3492500D01*
X+2725419Y+3492500D02*
X+2547620Y+3492500D01*
X+2369821Y+3492500D02*
X+2547620Y+3492500D01*
D13*
X+1125220Y+8956040D03*
X+1379220Y+8956040D03*
X+1633220Y+8956040D03*
X+1887220Y+8956040D03*
X+2141220Y+8956040D03*
X+2395220Y+8956040D03*
X+2649220Y+8956040D03*
X+2903220Y+8956040D03*
X+3157220Y+8956040D03*
X+3411220Y+8956040D03*
X+3665220Y+8956040D03*
X+3919220Y+8956040D03*
X+4173220Y+8956040D03*
X+4427220Y+8956040D03*
X+4681220Y+8956040D03*
X+4935220Y+8956040D03*
X+5461000Y+2603500D03*
X+5715000Y+2603500D03*
X+5969000Y+2603500D03*
X+6223000Y+2603500D03*
X+6477000Y+2603500D03*
X+6731000Y+2603500D03*
X+6985000Y+2603500D03*
X+7239000Y+2603500D03*
X+7493000Y+2603500D03*
X+7747000Y+2603500D03*
X+8001000Y+2603500D03*
X+8255000Y+2603500D03*
X+8509000Y+2603500D03*
X+8763000Y+2603500D03*
X+9017000Y+2603500D03*
X+9271000Y+2603500D03*
X+9525000Y+2603500D03*
X+9779000Y+2603500D03*
X+10033000Y+2603500D03*
X+10287000Y+2603500D03*
X+10287000Y+4127500D03*
X+10033000Y+4127500D03*
X+9779000Y+4127500D03*
X+9525000Y+4127500D03*
X+9271000Y+4127500D03*
X+9017000Y+4127500D03*
X+8763000Y+4127500D03*
X+8509000Y+4127500D03*
X+8255000Y+4127500D03*
X+8001000Y+4127500D03*
X+7747000Y+4127500D03*
X+7493000Y+4127500D03*
X+7239000Y+4127500D03*
X+6985000Y+4127500D03*
X+6731000Y+4127500D03*
X+6477000Y+4127500D03*
X+6223000Y+4127500D03*
X+5969000Y+4127500D03*
X+5715000Y+4127500D03*
X+5461000Y+4127500D03*
X+9329980Y+8668740D03*
X+8729980Y+8968740D03*
X+9329980Y+9268740D03*
X+9169400Y+5161280D03*
X+10185400Y+5161280D03*
X+7200900Y+5161280D03*
X+8216900Y+5161280D03*
D14*
X+1589000Y+3111500D03*
D15*
X+1259000Y+2661500D03*
D14*
X+889000Y+3111500D03*
D13*
X+13543280Y+7907020D03*
X+13543280Y+7507020D03*
X+11899900Y+7955280D03*
X+11899900Y+7701280D03*
X+11899900Y+7447280D03*
X+11899900Y+7193280D03*
X+11899900Y+6939280D03*
X+11899900Y+6685280D03*
X+11899900Y+6431280D03*
X+11899900Y+6177280D03*
X+12661900Y+6177280D03*
X+12661900Y+6431280D03*
X+12661900Y+6685280D03*
X+12661900Y+6939280D03*
X+12661900Y+7193280D03*
X+12661900Y+7447280D03*
X+12661900Y+7701280D03*
X+12661900Y+7955280D03*
X+3853180Y+2590800D03*
X+4869180Y+2590800D03*
X+9187180Y+4726940D03*
X+10203180Y+4726940D03*
X+7200900Y+4729480D03*
X+8216900Y+4729480D03*
X+11811000Y+635000D03*
X+12311000Y+635000D03*
X+4589780Y+3502660D03*
X+4189780Y+3502660D03*
X+10671860Y+6847840D03*
X+10271860Y+6847840D03*
X+13939520Y+2448560D03*
X+13939520Y+2948560D03*
X+13618260Y+6195060D03*
X+13218260Y+6195060D03*
X+9509660Y+6863080D03*
X+9109660Y+6863080D03*
X+9519920Y+7932420D03*
X+9119920Y+7932420D03*
X+10668000Y+7937500D03*
X+10268000Y+7937500D03*
D16*
X+1805940Y+952500D03*
X+1805940Y+1272540D03*
X+1557020Y+1272540D03*
X+1557020Y+952500D03*
D17*
X+1333500Y+1714500D03*
X+1333500Y+510540D03*
D13*
X+11557000Y+3937000D03*
X+11557000Y+4337000D03*
X+12509500Y+4000500D03*
X+12509500Y+4400500D03*
X+11112500Y+9080500D03*
X+11874500Y+9080500D03*
X+12547600Y+9080500D03*
X+13309600Y+9080500D03*
X+12534900Y+8712200D03*
X+13296900Y+8712200D03*
X+11112500Y+8704580D03*
X+11874500Y+8704580D03*
D18*
X+6350000Y+762000D03*
X+6604000Y+762000D03*
X+6858000Y+762000D03*
X+7112000Y+762000D03*
X+7366000Y+762000D03*
X+7620000Y+762000D03*
X+7874000Y+762000D03*
X+8128000Y+762000D03*
X+8763000Y+762000D03*
X+9017000Y+762000D03*
X+9271000Y+762000D03*
X+9525000Y+762000D03*
X+9779000Y+762000D03*
X+10033000Y+762000D03*
X+10287000Y+762000D03*
X+10541000Y+762000D03*
X+3937000Y+762000D03*
X+4191000Y+762000D03*
X+4445000Y+762000D03*
X+4699000Y+762000D03*
X+4953000Y+762000D03*
X+5207000Y+762000D03*
X+5461000Y+762000D03*
X+5715000Y+762000D03*
D13*
X+13970000Y+3810000D03*
X+13716000Y+3810000D03*
D19*
X+11684000Y+2540000D03*
X+11684000Y+2413000D03*
X+11684000Y+2286000D03*
X+11684000Y+2159000D03*
X+12264000Y+2159000D03*
X+12264000Y+2286000D03*
X+12264000Y+2413000D03*
X+12264000Y+2540000D03*
D70*
X+2540000Y+1143000D03*
X+2540000Y+889000D03*
D13*
X+11557000Y+1524000D03*
X+12573000Y+1524000D03*
D71*
X+2547620Y+3492500D03*
X+2547620Y+3746500D03*
D13*
X+3121660Y+4104640D03*
X+3121660Y+3088640D03*
D20*
X+0Y+500000D02*
X+0Y+9000000D01*
X+14500000Y+500000D02*
X+14500000Y+9000000D01*
X+14000000Y+0D02*
X+500000Y+0D01*
X+14000000Y+9500000D02*
X+500000Y+9500000D01*
X+0Y+9000000D02*
X+2525Y+9051964D01*
X+9949Y+9102234D01*
X+22041Y+9150581D01*
X+38574Y+9196777D01*
X+59318Y+9240593D01*
X+84045Y+9281799D01*
X+112526Y+9320168D01*
X+144531Y+9355469D01*
X+179832Y+9387474D01*
X+218201Y+9415955D01*
X+259407Y+9440681D01*
X+303223Y+9461426D01*
X+349419Y+9477959D01*
X+397766Y+9490051D01*
X+448036Y+9497475D01*
X+500000Y+9500000D01*
X+14500000Y+9000000D02*
X+14497475Y+9051964D01*
X+14490051Y+9102234D01*
X+14477959Y+9150581D01*
X+14461426Y+9196777D01*
X+14440682Y+9240593D01*
X+14415955Y+9281799D01*
X+14387474Y+9320168D01*
X+14355469Y+9355469D01*
X+14320168Y+9387474D01*
X+14281799Y+9415955D01*
X+14240593Y+9440681D01*
X+14196777Y+9461426D01*
X+14150581Y+9477959D01*
X+14102234Y+9490051D01*
X+14051964Y+9497475D01*
X+14000000Y+9500000D01*
X+14500000Y+500000D02*
X+14497475Y+448036D01*
X+14490051Y+397766D01*
X+14477959Y+349419D01*
X+14461426Y+303223D01*
X+14440682Y+259407D01*
X+14415955Y+218201D01*
X+14387474Y+179832D01*
X+14355469Y+144531D01*
X+14320168Y+112526D01*
X+14281799Y+84045D01*
X+14240593Y+59319D01*
X+14196777Y+38574D01*
X+14150581Y+22041D01*
X+14102234Y+9949D01*
X+14051964Y+2525D01*
X+14000000Y+0D01*
X+0Y+500000D02*
X+2525Y+448036D01*
X+9949Y+397766D01*
X+22041Y+349419D01*
X+38574Y+303223D01*
X+59318Y+259407D01*
X+84045Y+218201D01*
X+112526Y+179832D01*
X+144531Y+144531D01*
X+179832Y+112526D01*
X+218201Y+84045D01*
X+259407Y+59319D01*
X+303223Y+38574D01*
X+349419Y+22041D01*
X+397766Y+9949D01*
X+448036Y+2525D01*
X+500000Y+0D01*
M02*
