G04 PROTEUS GERBER X2 FILE*
%TF.GenerationSoftware,Labcenter,Proteus,8.5-SP0-Build22067*%
%TF.CreationDate,2019-05-13T12:57:21+00:00*%
%TF.FileFunction,AssemblyDrawing,Top*%
%TF.FilePolarity,Positive*%
%TF.Part,Single*%
%FSLAX45Y45*%
%MOMM*%
G01*
%TA.AperFunction,Profile*%
%ADD20C,0.203200*%
%ADD38C,1.604260*%
%TA.AperFunction,Material*%
%ADD22C,0.203200*%
%ADD39C,1.036320*%
%ADD40C,0.100400*%
%ADD41C,0.121920*%
%ADD42C,0.031440*%
%ADD43C,0.080820*%
%ADD44C,0.579120*%
%ADD45C,0.102030*%
%ADD46C,0.103380*%
%ADD47C,0.088610*%
%ADD48C,0.127540*%
%ADD49C,0.103910*%
%ADD50C,0.124060*%
%ADD23C,0.152400*%
%ADD51C,0.429260*%
%ADD52C,0.106680*%
%ADD53C,0.240790*%
%ADD54C,0.132080*%
%ADD55C,0.050000*%
%ADD56C,0.258330*%
%ADD57C,0.075470*%
%ADD58C,0.147950*%
D20*
X+0Y+500000D02*
X+0Y+9000000D01*
X+14500000Y+500000D02*
X+14500000Y+9000000D01*
X+14000000Y+0D02*
X+500000Y+0D01*
X+14000000Y+9500000D02*
X+500000Y+9500000D01*
X+0Y+9000000D02*
X+2525Y+9051964D01*
X+9949Y+9102234D01*
X+22041Y+9150581D01*
X+38574Y+9196777D01*
X+59318Y+9240593D01*
X+84045Y+9281799D01*
X+112526Y+9320168D01*
X+144531Y+9355469D01*
X+179832Y+9387474D01*
X+218201Y+9415955D01*
X+259407Y+9440681D01*
X+303223Y+9461426D01*
X+349419Y+9477959D01*
X+397766Y+9490051D01*
X+448036Y+9497475D01*
X+500000Y+9500000D01*
X+14500000Y+9000000D02*
X+14497475Y+9051964D01*
X+14490051Y+9102234D01*
X+14477959Y+9150581D01*
X+14461426Y+9196777D01*
X+14440682Y+9240593D01*
X+14415955Y+9281799D01*
X+14387474Y+9320168D01*
X+14355469Y+9355469D01*
X+14320168Y+9387474D01*
X+14281799Y+9415955D01*
X+14240593Y+9440681D01*
X+14196777Y+9461426D01*
X+14150581Y+9477959D01*
X+14102234Y+9490051D01*
X+14051964Y+9497475D01*
X+14000000Y+9500000D01*
X+14500000Y+500000D02*
X+14497475Y+448036D01*
X+14490051Y+397766D01*
X+14477959Y+349419D01*
X+14461426Y+303223D01*
X+14440682Y+259407D01*
X+14415955Y+218201D01*
X+14387474Y+179832D01*
X+14355469Y+144531D01*
X+14320168Y+112526D01*
X+14281799Y+84045D01*
X+14240593Y+59319D01*
X+14196777Y+38574D01*
X+14150581Y+22041D01*
X+14102234Y+9949D01*
X+14051964Y+2525D01*
X+14000000Y+0D01*
X+0Y+500000D02*
X+2525Y+448036D01*
X+9949Y+397766D01*
X+22041Y+349419D01*
X+38574Y+303223D01*
X+59318Y+259407D01*
X+84045Y+218201D01*
X+112526Y+179832D01*
X+144531Y+144531D01*
X+179832Y+112526D01*
X+218201Y+84045D01*
X+259407Y+59319D01*
X+303223Y+38574D01*
X+349419Y+22041D01*
X+397766Y+9949D01*
X+448036Y+2525D01*
X+500000Y+0D01*
X+277060Y+5645880D02*
X+8298380Y+5645880D01*
X+8298380Y+9210040D01*
X+277060Y+9210040D01*
X+277060Y+5645880D01*
D38*
X+1720898Y+7909239D02*
X+1720898Y+6946680D01*
X+2683456Y+6946680D01*
X+3966867Y+7107107D02*
X+3806440Y+6946680D01*
X+3325161Y+6946680D01*
X+3004309Y+7267533D01*
X+3004309Y+7588386D01*
X+3325161Y+7909239D01*
X+3806440Y+7909239D01*
X+3966867Y+7748812D01*
X+4287720Y+6946680D02*
X+4287720Y+7909239D01*
X+4929425Y+7909239D01*
X+5250278Y+7588386D01*
X+5250278Y+7267533D01*
X+4929425Y+6946680D01*
X+4287720Y+6946680D01*
X+5891983Y+7588386D02*
X+6212836Y+7909239D01*
X+6212836Y+6946680D01*
D22*
X+5323840Y+2501900D02*
X+10424160Y+2501900D01*
X+10424160Y+4229100D01*
X+5323840Y+4229100D01*
X+5323840Y+2501900D01*
D39*
X+7044944Y+3676396D02*
X+7044944Y+3158236D01*
X+7148576Y+3054604D01*
X+7563104Y+3054604D01*
X+7666736Y+3158236D01*
X+7666736Y+3676396D01*
X+8081264Y+3469132D02*
X+8288528Y+3676396D01*
X+8288528Y+3054604D01*
D22*
X+8628380Y+8567140D02*
X+9431580Y+8567140D01*
X+9431580Y+9370340D01*
X+8628380Y+9370340D01*
X+8628380Y+8567140D01*
D40*
X+8758900Y+8988820D02*
X+8768940Y+8998860D01*
X+8799060Y+8998860D01*
X+8809100Y+8988820D01*
X+8809100Y+8978780D01*
X+8799060Y+8968740D01*
X+8768940Y+8968740D01*
X+8758900Y+8958700D01*
X+8758900Y+8938620D01*
X+8809100Y+8938620D01*
X+8829180Y+8948660D02*
X+8829180Y+8988820D01*
X+8839220Y+8998860D01*
X+8879380Y+8998860D01*
X+8889420Y+8988820D01*
X+8889420Y+8948660D01*
X+8879380Y+8938620D01*
X+8839220Y+8938620D01*
X+8829180Y+8948660D01*
X+8829180Y+8938620D02*
X+8889420Y+8998860D01*
X+8909500Y+8998860D02*
X+8909500Y+8938620D01*
X+8969740Y+8998860D02*
X+8939620Y+8968740D01*
X+8969740Y+8938620D01*
X+8909500Y+8968740D02*
X+8939620Y+8968740D01*
X+8989820Y+8928580D02*
X+9050060Y+8928580D01*
X+9070140Y+8938620D02*
X+9070140Y+8998860D01*
X+9120340Y+8998860D01*
X+9130380Y+8988820D01*
X+9130380Y+8978780D01*
X+9120340Y+8968740D01*
X+9070140Y+8968740D01*
X+9120340Y+8968740D02*
X+9130380Y+8958700D01*
X+9130380Y+8938620D01*
X+9150460Y+8998860D02*
X+9150460Y+8968740D01*
X+9180580Y+8938620D01*
X+9210700Y+8968740D01*
X+9210700Y+8998860D01*
X+9250860Y+8978780D02*
X+9270940Y+8998860D01*
X+9270940Y+8938620D01*
D22*
X+9067800Y+5059680D02*
X+10287000Y+5059680D01*
X+10287000Y+5262880D01*
X+9067800Y+5262880D01*
X+9067800Y+5059680D01*
D41*
X+9348216Y+5185664D02*
X+9360408Y+5197856D01*
X+9396984Y+5197856D01*
X+9409176Y+5185664D01*
X+9409176Y+5173472D01*
X+9396984Y+5161280D01*
X+9360408Y+5161280D01*
X+9348216Y+5149088D01*
X+9348216Y+5124704D01*
X+9409176Y+5124704D01*
X+9470136Y+5136896D02*
X+9482328Y+5136896D01*
X+9482328Y+5124704D01*
X+9470136Y+5124704D01*
X+9470136Y+5136896D01*
X+9543288Y+5185664D02*
X+9555480Y+5197856D01*
X+9592056Y+5197856D01*
X+9604248Y+5185664D01*
X+9604248Y+5173472D01*
X+9592056Y+5161280D01*
X+9555480Y+5161280D01*
X+9543288Y+5149088D01*
X+9543288Y+5124704D01*
X+9604248Y+5124704D01*
X+9628632Y+5124704D02*
X+9628632Y+5197856D01*
X+9665208Y+5161280D01*
X+9701784Y+5197856D01*
X+9701784Y+5124704D01*
X+9726168Y+5112512D02*
X+9799320Y+5112512D01*
X+9823704Y+5124704D02*
X+9823704Y+5197856D01*
X+9884664Y+5197856D01*
X+9896856Y+5185664D01*
X+9896856Y+5173472D01*
X+9884664Y+5161280D01*
X+9823704Y+5161280D01*
X+9884664Y+5161280D02*
X+9896856Y+5149088D01*
X+9896856Y+5124704D01*
X+9933432Y+5185664D02*
X+9945624Y+5197856D01*
X+9982200Y+5197856D01*
X+9994392Y+5185664D01*
X+9994392Y+5173472D01*
X+9982200Y+5161280D01*
X+9945624Y+5161280D01*
X+9933432Y+5149088D01*
X+9933432Y+5124704D01*
X+9994392Y+5124704D01*
D22*
X+7099300Y+5059680D02*
X+8318500Y+5059680D01*
X+8318500Y+5262880D01*
X+7099300Y+5262880D01*
X+7099300Y+5059680D01*
D41*
X+7489444Y+5173472D02*
X+7513828Y+5197856D01*
X+7513828Y+5124704D01*
X+7562596Y+5197856D02*
X+7562596Y+5124704D01*
X+7635748Y+5197856D02*
X+7599172Y+5161280D01*
X+7635748Y+5124704D01*
X+7562596Y+5161280D02*
X+7599172Y+5161280D01*
X+7660132Y+5112512D02*
X+7733284Y+5112512D01*
X+7757668Y+5124704D02*
X+7757668Y+5197856D01*
X+7818628Y+5197856D01*
X+7830820Y+5185664D01*
X+7830820Y+5173472D01*
X+7818628Y+5161280D01*
X+7757668Y+5161280D01*
X+7818628Y+5161280D02*
X+7830820Y+5149088D01*
X+7830820Y+5124704D01*
X+7867396Y+5185664D02*
X+7879588Y+5197856D01*
X+7916164Y+5197856D01*
X+7928356Y+5185664D01*
X+7928356Y+5173472D01*
X+7916164Y+5161280D01*
X+7928356Y+5149088D01*
X+7928356Y+5136896D01*
X+7916164Y+5124704D01*
X+7879588Y+5124704D01*
X+7867396Y+5136896D01*
X+7891780Y+5161280D02*
X+7916164Y+5161280D01*
D22*
X+701788Y+3071500D02*
X+701245Y+3084781D01*
X+696837Y+3111344D01*
X+687627Y+3137907D01*
X+672628Y+3164470D01*
X+649684Y+3190869D01*
X+623121Y+3210869D01*
X+596558Y+3223773D01*
X+569995Y+3231310D01*
X+543432Y+3234228D01*
X+539000Y+3234288D01*
X+376212Y+3071500D02*
X+376755Y+3084781D01*
X+381163Y+3111344D01*
X+390373Y+3137907D01*
X+405372Y+3164470D01*
X+428316Y+3190869D01*
X+454879Y+3210869D01*
X+481442Y+3223773D01*
X+508005Y+3231310D01*
X+534568Y+3234228D01*
X+539000Y+3234288D01*
X+376212Y+3071500D02*
X+376755Y+3058219D01*
X+381163Y+3031656D01*
X+390373Y+3005093D01*
X+405372Y+2978530D01*
X+428316Y+2952131D01*
X+454879Y+2932131D01*
X+481442Y+2919227D01*
X+508005Y+2911690D01*
X+534568Y+2908772D01*
X+539000Y+2908712D01*
X+701788Y+3071500D02*
X+701245Y+3058219D01*
X+696837Y+3031656D01*
X+687627Y+3005093D01*
X+672628Y+2978530D01*
X+649684Y+2952131D01*
X+623121Y+2932131D01*
X+596558Y+2919227D01*
X+569995Y+2911690D01*
X+543432Y+2908772D01*
X+539000Y+2908712D01*
D42*
X+432087Y+3080934D02*
X+416364Y+3080934D01*
X+416364Y+3074645D01*
X+428942Y+3074645D01*
X+432087Y+3071500D01*
X+432087Y+3065211D01*
X+428942Y+3062067D01*
X+419509Y+3062067D01*
X+416364Y+3065211D01*
X+438376Y+3080934D02*
X+438376Y+3071500D01*
X+447809Y+3062067D01*
X+457243Y+3071500D01*
X+457243Y+3080934D01*
X+463532Y+3058922D02*
X+482399Y+3058922D01*
X+488688Y+3062067D02*
X+488688Y+3080934D01*
X+501266Y+3080934D01*
X+507555Y+3074645D01*
X+507555Y+3068356D01*
X+501266Y+3062067D01*
X+488688Y+3062067D01*
X+532711Y+3065211D02*
X+529566Y+3062067D01*
X+520133Y+3062067D01*
X+513844Y+3068356D01*
X+513844Y+3074645D01*
X+520133Y+3080934D01*
X+529566Y+3080934D01*
X+532711Y+3077789D01*
X+539000Y+3058922D02*
X+557867Y+3058922D01*
X+564156Y+3068356D02*
X+564156Y+3065211D01*
X+567300Y+3062067D01*
X+579878Y+3062067D01*
X+583023Y+3065211D01*
X+583023Y+3080934D01*
X+589312Y+3062067D02*
X+589312Y+3074645D01*
X+595601Y+3080934D01*
X+601890Y+3080934D01*
X+608179Y+3074645D01*
X+608179Y+3062067D01*
X+589312Y+3068356D02*
X+608179Y+3068356D01*
X+633335Y+3065211D02*
X+630190Y+3062067D01*
X+620757Y+3062067D01*
X+614468Y+3068356D01*
X+614468Y+3074645D01*
X+620757Y+3080934D01*
X+630190Y+3080934D01*
X+633335Y+3077789D01*
X+639624Y+3080934D02*
X+639624Y+3062067D01*
X+658491Y+3080934D02*
X+649057Y+3071500D01*
X+658491Y+3062067D01*
X+639624Y+3071500D02*
X+649057Y+3071500D01*
D22*
X+13179567Y+7343307D02*
X+13906993Y+7343307D01*
X+13906993Y+8070733D01*
X+13179567Y+8070733D01*
X+13179567Y+7343307D01*
D43*
X+13535197Y+7464545D02*
X+13519032Y+7480710D01*
X+13567527Y+7480710D01*
X+13559445Y+7513040D02*
X+13527115Y+7513040D01*
X+13519032Y+7521122D01*
X+13519032Y+7553452D01*
X+13527115Y+7561535D01*
X+13559445Y+7561535D01*
X+13567527Y+7553452D01*
X+13567527Y+7521122D01*
X+13559445Y+7513040D01*
X+13567527Y+7513040D02*
X+13519032Y+7561535D01*
X+13559445Y+7577700D02*
X+13527115Y+7577700D01*
X+13519032Y+7585782D01*
X+13519032Y+7618112D01*
X+13527115Y+7626195D01*
X+13559445Y+7626195D01*
X+13567527Y+7618112D01*
X+13567527Y+7585782D01*
X+13559445Y+7577700D01*
X+13567527Y+7577700D02*
X+13519032Y+7626195D01*
X+13567527Y+7642360D02*
X+13519032Y+7642360D01*
X+13567527Y+7690855D01*
X+13519032Y+7690855D01*
X+13567527Y+7707020D02*
X+13519032Y+7707020D01*
X+13519032Y+7755515D01*
X+13543280Y+7707020D02*
X+13543280Y+7739350D01*
X+13575610Y+7771680D02*
X+13575610Y+7820175D01*
X+13559445Y+7884835D02*
X+13567527Y+7876752D01*
X+13567527Y+7852505D01*
X+13551362Y+7836340D01*
X+13535197Y+7836340D01*
X+13519032Y+7852505D01*
X+13519032Y+7876752D01*
X+13527115Y+7884835D01*
X+13527115Y+7909082D02*
X+13519032Y+7917165D01*
X+13519032Y+7941412D01*
X+13527115Y+7949495D01*
X+13535197Y+7949495D01*
X+13543280Y+7941412D01*
X+13543280Y+7917165D01*
X+13551362Y+7909082D01*
X+13567527Y+7909082D01*
X+13567527Y+7949495D01*
D22*
X+11798300Y+6040120D02*
X+12763500Y+6040120D01*
X+12763500Y+8092440D01*
X+11798300Y+8092440D01*
X+11798300Y+6040120D01*
D44*
X+12107164Y+6602984D02*
X+12396724Y+6602984D01*
X+12454636Y+6660896D01*
X+12454636Y+6892544D01*
X+12396724Y+6950456D01*
X+12107164Y+6950456D01*
X+12165076Y+7124192D02*
X+12107164Y+7182104D01*
X+12107164Y+7355840D01*
X+12165076Y+7413752D01*
X+12222988Y+7413752D01*
X+12280900Y+7355840D01*
X+12280900Y+7182104D01*
X+12338812Y+7124192D01*
X+12454636Y+7124192D01*
X+12454636Y+7413752D01*
D22*
X+3751580Y+2489200D02*
X+4970780Y+2489200D01*
X+4970780Y+2692400D01*
X+3751580Y+2692400D01*
X+3751580Y+2489200D01*
D41*
X+4092956Y+2602992D02*
X+4117340Y+2627376D01*
X+4117340Y+2554224D01*
X+4166108Y+2566416D02*
X+4166108Y+2615184D01*
X+4178300Y+2627376D01*
X+4227068Y+2627376D01*
X+4239260Y+2615184D01*
X+4239260Y+2566416D01*
X+4227068Y+2554224D01*
X+4178300Y+2554224D01*
X+4166108Y+2566416D01*
X+4166108Y+2554224D02*
X+4239260Y+2627376D01*
X+4263644Y+2627376D02*
X+4263644Y+2554224D01*
X+4336796Y+2627376D02*
X+4300220Y+2590800D01*
X+4336796Y+2554224D01*
X+4263644Y+2590800D02*
X+4300220Y+2590800D01*
X+4361180Y+2542032D02*
X+4434332Y+2542032D01*
X+4458716Y+2554224D02*
X+4458716Y+2627376D01*
X+4519676Y+2627376D01*
X+4531868Y+2615184D01*
X+4531868Y+2602992D01*
X+4519676Y+2590800D01*
X+4458716Y+2590800D01*
X+4519676Y+2590800D02*
X+4531868Y+2578608D01*
X+4531868Y+2554224D01*
X+4580636Y+2602992D02*
X+4605020Y+2627376D01*
X+4605020Y+2554224D01*
D22*
X+9085580Y+4625340D02*
X+10304780Y+4625340D01*
X+10304780Y+4828540D01*
X+9085580Y+4828540D01*
X+9085580Y+4625340D01*
D41*
X+9365996Y+4751324D02*
X+9378188Y+4763516D01*
X+9414764Y+4763516D01*
X+9426956Y+4751324D01*
X+9426956Y+4739132D01*
X+9414764Y+4726940D01*
X+9378188Y+4726940D01*
X+9365996Y+4714748D01*
X+9365996Y+4690364D01*
X+9426956Y+4690364D01*
X+9487916Y+4702556D02*
X+9500108Y+4702556D01*
X+9500108Y+4690364D01*
X+9487916Y+4690364D01*
X+9487916Y+4702556D01*
X+9561068Y+4751324D02*
X+9573260Y+4763516D01*
X+9609836Y+4763516D01*
X+9622028Y+4751324D01*
X+9622028Y+4739132D01*
X+9609836Y+4726940D01*
X+9573260Y+4726940D01*
X+9561068Y+4714748D01*
X+9561068Y+4690364D01*
X+9622028Y+4690364D01*
X+9646412Y+4690364D02*
X+9646412Y+4763516D01*
X+9682988Y+4726940D01*
X+9719564Y+4763516D01*
X+9719564Y+4690364D01*
X+9743948Y+4678172D02*
X+9817100Y+4678172D01*
X+9841484Y+4690364D02*
X+9841484Y+4763516D01*
X+9902444Y+4763516D01*
X+9914636Y+4751324D01*
X+9914636Y+4739132D01*
X+9902444Y+4726940D01*
X+9841484Y+4726940D01*
X+9902444Y+4726940D02*
X+9914636Y+4714748D01*
X+9914636Y+4690364D01*
X+10012172Y+4714748D02*
X+9939020Y+4714748D01*
X+9987788Y+4763516D01*
X+9987788Y+4690364D01*
D22*
X+7099300Y+4627880D02*
X+8318500Y+4627880D01*
X+8318500Y+4831080D01*
X+7099300Y+4831080D01*
X+7099300Y+4627880D01*
D41*
X+7489444Y+4741672D02*
X+7513828Y+4766056D01*
X+7513828Y+4692904D01*
X+7562596Y+4766056D02*
X+7562596Y+4692904D01*
X+7635748Y+4766056D02*
X+7599172Y+4729480D01*
X+7635748Y+4692904D01*
X+7562596Y+4729480D02*
X+7599172Y+4729480D01*
X+7660132Y+4680712D02*
X+7733284Y+4680712D01*
X+7757668Y+4692904D02*
X+7757668Y+4766056D01*
X+7818628Y+4766056D01*
X+7830820Y+4753864D01*
X+7830820Y+4741672D01*
X+7818628Y+4729480D01*
X+7757668Y+4729480D01*
X+7818628Y+4729480D02*
X+7830820Y+4717288D01*
X+7830820Y+4692904D01*
X+7928356Y+4766056D02*
X+7867396Y+4766056D01*
X+7867396Y+4741672D01*
X+7916164Y+4741672D01*
X+7928356Y+4729480D01*
X+7928356Y+4705096D01*
X+7916164Y+4692904D01*
X+7879588Y+4692904D01*
X+7867396Y+4705096D01*
D22*
X+11550840Y+224840D02*
X+12571160Y+224840D01*
X+12571160Y+1045160D01*
X+11550840Y+1045160D01*
X+11550840Y+224840D01*
D45*
X+11693688Y+604390D02*
X+11693688Y+665609D01*
X+11724297Y+635000D01*
X+11754906Y+665609D01*
X+11754906Y+604390D01*
X+11775313Y+645203D02*
X+11795719Y+665609D01*
X+11816125Y+665609D01*
X+11836531Y+645203D01*
X+11836531Y+624796D01*
X+11816125Y+604390D01*
X+11795719Y+604390D01*
X+11775313Y+624796D01*
X+11775313Y+645203D01*
X+11856938Y+665609D02*
X+11918156Y+665609D01*
X+11887547Y+665609D02*
X+11887547Y+604390D01*
X+11938563Y+645203D02*
X+11958969Y+665609D01*
X+11979375Y+665609D01*
X+11999781Y+645203D01*
X+11999781Y+624796D01*
X+11979375Y+604390D01*
X+11958969Y+604390D01*
X+11938563Y+624796D01*
X+11938563Y+645203D01*
X+12020188Y+604390D02*
X+12020188Y+665609D01*
X+12071203Y+665609D01*
X+12081406Y+655406D01*
X+12081406Y+645203D01*
X+12071203Y+635000D01*
X+12020188Y+635000D01*
X+12071203Y+635000D02*
X+12081406Y+624796D01*
X+12081406Y+604390D01*
X+12101813Y+594187D02*
X+12163031Y+594187D01*
X+12183438Y+665609D02*
X+12244656Y+665609D01*
X+12214047Y+665609D02*
X+12214047Y+604390D01*
X+12265063Y+604390D02*
X+12265063Y+665609D01*
X+12316078Y+665609D01*
X+12326281Y+655406D01*
X+12326281Y+645203D01*
X+12316078Y+635000D01*
X+12326281Y+624796D01*
X+12326281Y+614593D01*
X+12316078Y+604390D01*
X+12265063Y+604390D01*
X+12265063Y+635000D02*
X+12316078Y+635000D01*
X+12346688Y+665609D02*
X+12346688Y+604390D01*
X+12407906Y+604390D01*
D22*
X+4079620Y+3192500D02*
X+4699940Y+3192500D01*
X+4699940Y+3812820D01*
X+4079620Y+3812820D01*
X+4079620Y+3192500D01*
D46*
X+4183010Y+3471644D02*
X+4183010Y+3533675D01*
X+4234702Y+3533675D01*
X+4245041Y+3523337D01*
X+4245041Y+3512998D01*
X+4234702Y+3502660D01*
X+4183010Y+3502660D01*
X+4234702Y+3502660D02*
X+4245041Y+3492321D01*
X+4245041Y+3471644D01*
X+4327749Y+3471644D02*
X+4265718Y+3471644D01*
X+4265718Y+3533675D01*
X+4327749Y+3533675D01*
X+4265718Y+3502660D02*
X+4307072Y+3502660D01*
X+4348426Y+3481982D02*
X+4358764Y+3471644D01*
X+4400118Y+3471644D01*
X+4410457Y+3481982D01*
X+4410457Y+3492321D01*
X+4400118Y+3502660D01*
X+4358764Y+3502660D01*
X+4348426Y+3512998D01*
X+4348426Y+3523337D01*
X+4358764Y+3533675D01*
X+4400118Y+3533675D01*
X+4410457Y+3523337D01*
X+4493165Y+3471644D02*
X+4431134Y+3471644D01*
X+4431134Y+3533675D01*
X+4493165Y+3533675D01*
X+4431134Y+3502660D02*
X+4472488Y+3502660D01*
X+4513842Y+3533675D02*
X+4575873Y+3533675D01*
X+4544857Y+3533675D02*
X+4544857Y+3471644D01*
D22*
X+10161700Y+6537680D02*
X+10782020Y+6537680D01*
X+10782020Y+7158000D01*
X+10161700Y+7158000D01*
X+10161700Y+6537680D01*
D47*
X+10259181Y+6830117D02*
X+10268042Y+6821255D01*
X+10303489Y+6821255D01*
X+10312350Y+6830117D01*
X+10312350Y+6838978D01*
X+10303489Y+6847840D01*
X+10268042Y+6847840D01*
X+10259181Y+6856702D01*
X+10259181Y+6865563D01*
X+10268042Y+6874425D01*
X+10303489Y+6874425D01*
X+10312350Y+6865563D01*
X+10383243Y+6821255D02*
X+10330074Y+6821255D01*
X+10330074Y+6874425D01*
X+10383243Y+6874425D01*
X+10330074Y+6847840D02*
X+10365520Y+6847840D01*
X+10400967Y+6874425D02*
X+10400967Y+6821255D01*
X+10454136Y+6821255D01*
X+10525029Y+6821255D02*
X+10471860Y+6821255D01*
X+10471860Y+6874425D01*
X+10525029Y+6874425D01*
X+10471860Y+6847840D02*
X+10507306Y+6847840D01*
X+10595922Y+6830117D02*
X+10587061Y+6821255D01*
X+10560476Y+6821255D01*
X+10542753Y+6838978D01*
X+10542753Y+6856702D01*
X+10560476Y+6874425D01*
X+10587061Y+6874425D01*
X+10595922Y+6865563D01*
X+10613646Y+6874425D02*
X+10666815Y+6874425D01*
X+10640230Y+6874425D02*
X+10640230Y+6821255D01*
D22*
X+13529360Y+2188400D02*
X+14349680Y+2188400D01*
X+14349680Y+3208720D01*
X+13529360Y+3208720D01*
X+13529360Y+2188400D01*
D48*
X+13977782Y+2341448D02*
X+13901258Y+2341448D01*
X+13939520Y+2379710D01*
X+13901258Y+2417972D01*
X+13977782Y+2417972D01*
X+13926766Y+2443480D02*
X+13901258Y+2468988D01*
X+13901258Y+2494496D01*
X+13926766Y+2520004D01*
X+13952274Y+2520004D01*
X+13977782Y+2494496D01*
X+13977782Y+2468988D01*
X+13952274Y+2443480D01*
X+13926766Y+2443480D01*
X+13901258Y+2545512D02*
X+13901258Y+2622036D01*
X+13901258Y+2583774D02*
X+13977782Y+2583774D01*
X+13939520Y+2660298D02*
X+13939520Y+2724068D01*
X+13977782Y+2749576D02*
X+13901258Y+2749576D01*
X+13901258Y+2813346D01*
X+13914012Y+2826100D01*
X+13926766Y+2826100D01*
X+13939520Y+2813346D01*
X+13939520Y+2749576D01*
X+13901258Y+2851608D02*
X+13977782Y+2851608D01*
X+13939520Y+2889870D01*
X+13977782Y+2928132D01*
X+13901258Y+2928132D01*
X+13977782Y+2953640D02*
X+13901258Y+2953640D01*
X+13901258Y+3017410D01*
X+13914012Y+3030164D01*
X+13926766Y+3030164D01*
X+13939520Y+3017410D01*
X+13939520Y+2953640D01*
X+13939520Y+3017410D02*
X+13952274Y+3030164D01*
X+13977782Y+3030164D01*
D22*
X+13054547Y+5831347D02*
X+13781973Y+5831347D01*
X+13781973Y+6558773D01*
X+13054547Y+6558773D01*
X+13054547Y+5831347D01*
D49*
X+13189641Y+6205451D02*
X+13210425Y+6226235D01*
X+13210425Y+6163884D01*
X+13251992Y+6226235D02*
X+13251992Y+6174276D01*
X+13262383Y+6163884D01*
X+13303950Y+6163884D01*
X+13314342Y+6174276D01*
X+13314342Y+6226235D01*
X+13335126Y+6163884D02*
X+13335126Y+6226235D01*
X+13397476Y+6226235D01*
X+13335126Y+6195060D02*
X+13376693Y+6195060D01*
X+13418260Y+6153492D02*
X+13480610Y+6153492D01*
X+13563744Y+6174276D02*
X+13553352Y+6163884D01*
X+13522177Y+6163884D01*
X+13501394Y+6184668D01*
X+13501394Y+6205451D01*
X+13522177Y+6226235D01*
X+13553352Y+6226235D01*
X+13563744Y+6215843D01*
X+13605311Y+6205451D02*
X+13626095Y+6226235D01*
X+13626095Y+6163884D01*
D22*
X+8999500Y+6552920D02*
X+9619820Y+6552920D01*
X+9619820Y+7173240D01*
X+8999500Y+7173240D01*
X+8999500Y+6552920D01*
D50*
X+9111158Y+6825860D02*
X+9111158Y+6900299D01*
X+9173189Y+6900299D01*
X+9185596Y+6887892D01*
X+9185596Y+6875486D01*
X+9173189Y+6863080D01*
X+9185596Y+6850673D01*
X+9185596Y+6838267D01*
X+9173189Y+6825860D01*
X+9111158Y+6825860D01*
X+9111158Y+6863080D02*
X+9173189Y+6863080D01*
X+9210409Y+6825860D02*
X+9210409Y+6875486D01*
X+9235221Y+6900299D01*
X+9260034Y+6900299D01*
X+9284847Y+6875486D01*
X+9284847Y+6825860D01*
X+9210409Y+6850673D02*
X+9284847Y+6850673D01*
X+9384098Y+6838267D02*
X+9371691Y+6825860D01*
X+9334472Y+6825860D01*
X+9309660Y+6850673D01*
X+9309660Y+6875486D01*
X+9334472Y+6900299D01*
X+9371691Y+6900299D01*
X+9384098Y+6887892D01*
X+9408911Y+6900299D02*
X+9408911Y+6825860D01*
X+9483349Y+6900299D02*
X+9446130Y+6863080D01*
X+9483349Y+6825860D01*
X+9408911Y+6863080D02*
X+9446130Y+6863080D01*
D22*
X+9009760Y+7622260D02*
X+9630080Y+7622260D01*
X+9630080Y+8242580D01*
X+9009760Y+8242580D01*
X+9009760Y+7622260D01*
D50*
X+9121418Y+7969639D02*
X+9121418Y+7895200D01*
X+9195856Y+7895200D01*
X+9295107Y+7895200D02*
X+9220669Y+7895200D01*
X+9220669Y+7969639D01*
X+9295107Y+7969639D01*
X+9220669Y+7932420D02*
X+9270294Y+7932420D01*
X+9319920Y+7895200D02*
X+9319920Y+7969639D01*
X+9394358Y+7969639D01*
X+9319920Y+7932420D02*
X+9369545Y+7932420D01*
X+9419171Y+7969639D02*
X+9493609Y+7969639D01*
X+9456390Y+7969639D02*
X+9456390Y+7895200D01*
D22*
X+10157840Y+7627340D02*
X+10778160Y+7627340D01*
X+10778160Y+8247660D01*
X+10157840Y+8247660D01*
X+10157840Y+7627340D01*
D46*
X+10261230Y+7906484D02*
X+10261230Y+7968515D01*
X+10312922Y+7968515D01*
X+10323261Y+7958177D01*
X+10323261Y+7947838D01*
X+10312922Y+7937500D01*
X+10261230Y+7937500D01*
X+10312922Y+7937500D02*
X+10323261Y+7927161D01*
X+10323261Y+7906484D01*
X+10354276Y+7968515D02*
X+10395630Y+7968515D01*
X+10374953Y+7968515D02*
X+10374953Y+7906484D01*
X+10354276Y+7906484D02*
X+10395630Y+7906484D01*
X+10468000Y+7927161D02*
X+10488677Y+7927161D01*
X+10488677Y+7906484D01*
X+10447323Y+7906484D01*
X+10426646Y+7927161D01*
X+10426646Y+7947838D01*
X+10447323Y+7968515D01*
X+10478338Y+7968515D01*
X+10488677Y+7958177D01*
X+10509354Y+7906484D02*
X+10509354Y+7968515D01*
X+10571385Y+7968515D02*
X+10571385Y+7906484D01*
X+10509354Y+7937500D02*
X+10571385Y+7937500D01*
X+10592062Y+7968515D02*
X+10654093Y+7968515D01*
X+10623077Y+7968515D02*
X+10623077Y+7906484D01*
D23*
X+1983740Y+332740D02*
X+1983740Y+1892300D01*
X+281940Y+1892300D01*
X+281940Y+332740D01*
X+1983740Y+332740D02*
X+281940Y+332740D01*
X+281940Y+1892300D01*
X+1983740Y+1892300D01*
X+1983740Y+332740D01*
X+281940Y+332740D01*
D51*
X+617728Y+1241298D02*
X+617728Y+1026668D01*
X+660654Y+983742D01*
X+832358Y+983742D01*
X+875284Y+1026668D01*
X+875284Y+1241298D01*
X+961136Y+1026668D02*
X+1004062Y+983742D01*
X+1175766Y+983742D01*
X+1218692Y+1026668D01*
X+1218692Y+1069594D01*
X+1175766Y+1112520D01*
X+1004062Y+1112520D01*
X+961136Y+1155446D01*
X+961136Y+1198372D01*
X+1004062Y+1241298D01*
X+1175766Y+1241298D01*
X+1218692Y+1198372D01*
X+1304544Y+983742D02*
X+1304544Y+1241298D01*
X+1519174Y+1241298D01*
X+1562100Y+1198372D01*
X+1562100Y+1155446D01*
X+1519174Y+1112520D01*
X+1562100Y+1069594D01*
X+1562100Y+1026668D01*
X+1519174Y+983742D01*
X+1304544Y+983742D01*
X+1304544Y+1112520D02*
X+1519174Y+1112520D01*
D22*
X+11193287Y+3773287D02*
X+11920713Y+3773287D01*
X+11920713Y+4500713D01*
X+11193287Y+4500713D01*
X+11193287Y+3773287D01*
D49*
X+11546609Y+3908381D02*
X+11525825Y+3929165D01*
X+11588176Y+3929165D01*
X+11588176Y+3970732D02*
X+11525825Y+3970732D01*
X+11588176Y+4033082D01*
X+11525825Y+4033082D01*
X+11588176Y+4053866D02*
X+11525825Y+4053866D01*
X+11525825Y+4116216D01*
X+11557000Y+4053866D02*
X+11557000Y+4095433D01*
X+11598568Y+4137000D02*
X+11598568Y+4199350D01*
X+11577784Y+4282484D02*
X+11588176Y+4272092D01*
X+11588176Y+4240917D01*
X+11567392Y+4220134D01*
X+11546609Y+4220134D01*
X+11525825Y+4240917D01*
X+11525825Y+4272092D01*
X+11536217Y+4282484D01*
X+11536217Y+4313659D02*
X+11525825Y+4324051D01*
X+11525825Y+4355226D01*
X+11536217Y+4365618D01*
X+11546609Y+4365618D01*
X+11557000Y+4355226D01*
X+11567392Y+4365618D01*
X+11577784Y+4365618D01*
X+11588176Y+4355226D01*
X+11588176Y+4324051D01*
X+11577784Y+4313659D01*
X+11557000Y+4334443D02*
X+11557000Y+4355226D01*
D22*
X+12145787Y+3836787D02*
X+12873213Y+3836787D01*
X+12873213Y+4564213D01*
X+12145787Y+4564213D01*
X+12145787Y+3836787D01*
D43*
X+12501417Y+3958025D02*
X+12485252Y+3974190D01*
X+12533747Y+3974190D01*
X+12525665Y+4006520D02*
X+12493335Y+4006520D01*
X+12485252Y+4014602D01*
X+12485252Y+4046932D01*
X+12493335Y+4055015D01*
X+12525665Y+4055015D01*
X+12533747Y+4046932D01*
X+12533747Y+4014602D01*
X+12525665Y+4006520D01*
X+12533747Y+4006520D02*
X+12485252Y+4055015D01*
X+12525665Y+4071180D02*
X+12493335Y+4071180D01*
X+12485252Y+4079262D01*
X+12485252Y+4111592D01*
X+12493335Y+4119675D01*
X+12525665Y+4119675D01*
X+12533747Y+4111592D01*
X+12533747Y+4079262D01*
X+12525665Y+4071180D01*
X+12533747Y+4071180D02*
X+12485252Y+4119675D01*
X+12533747Y+4135840D02*
X+12485252Y+4135840D01*
X+12533747Y+4184335D01*
X+12485252Y+4184335D01*
X+12533747Y+4200500D02*
X+12485252Y+4200500D01*
X+12485252Y+4248995D01*
X+12509500Y+4200500D02*
X+12509500Y+4232830D01*
X+12541830Y+4265160D02*
X+12541830Y+4313655D01*
X+12525665Y+4378315D02*
X+12533747Y+4370232D01*
X+12533747Y+4345985D01*
X+12517582Y+4329820D01*
X+12501417Y+4329820D01*
X+12485252Y+4345985D01*
X+12485252Y+4370232D01*
X+12493335Y+4378315D01*
X+12517582Y+4442975D02*
X+12517582Y+4394480D01*
X+12485252Y+4426810D01*
X+12533747Y+4426810D01*
D22*
X+11023600Y+8991600D02*
X+11963400Y+8991600D01*
X+11963400Y+9169400D01*
X+11023600Y+9169400D01*
X+11023600Y+8991600D01*
D52*
X+11408156Y+9048496D02*
X+11408156Y+9112504D01*
X+11450828Y+9112504D01*
X+11472164Y+9091168D01*
X+11472164Y+9069832D01*
X+11450828Y+9048496D01*
X+11408156Y+9048496D01*
X+11514836Y+9091168D02*
X+11536172Y+9112504D01*
X+11536172Y+9048496D01*
D22*
X+12458700Y+8991600D02*
X+13398500Y+8991600D01*
X+13398500Y+9169400D01*
X+12458700Y+9169400D01*
X+12458700Y+8991600D01*
D52*
X+12843256Y+9048496D02*
X+12843256Y+9112504D01*
X+12885928Y+9112504D01*
X+12907264Y+9091168D01*
X+12907264Y+9069832D01*
X+12885928Y+9048496D01*
X+12843256Y+9048496D01*
X+12939268Y+9101836D02*
X+12949936Y+9112504D01*
X+12981940Y+9112504D01*
X+12992608Y+9101836D01*
X+12992608Y+9091168D01*
X+12981940Y+9080500D01*
X+12949936Y+9080500D01*
X+12939268Y+9069832D01*
X+12939268Y+9048496D01*
X+12992608Y+9048496D01*
D22*
X+12446000Y+8623300D02*
X+13385800Y+8623300D01*
X+13385800Y+8801100D01*
X+12446000Y+8801100D01*
X+12446000Y+8623300D01*
D52*
X+12830556Y+8680196D02*
X+12830556Y+8744204D01*
X+12873228Y+8744204D01*
X+12894564Y+8722868D01*
X+12894564Y+8701532D01*
X+12873228Y+8680196D01*
X+12830556Y+8680196D01*
X+12926568Y+8733536D02*
X+12937236Y+8744204D01*
X+12969240Y+8744204D01*
X+12979908Y+8733536D01*
X+12979908Y+8722868D01*
X+12969240Y+8712200D01*
X+12979908Y+8701532D01*
X+12979908Y+8690864D01*
X+12969240Y+8680196D01*
X+12937236Y+8680196D01*
X+12926568Y+8690864D01*
X+12947904Y+8712200D02*
X+12969240Y+8712200D01*
D22*
X+11023600Y+8615680D02*
X+11963400Y+8615680D01*
X+11963400Y+8793480D01*
X+11023600Y+8793480D01*
X+11023600Y+8615680D01*
D52*
X+11408156Y+8672576D02*
X+11408156Y+8736584D01*
X+11450828Y+8736584D01*
X+11472164Y+8715248D01*
X+11472164Y+8693912D01*
X+11450828Y+8672576D01*
X+11408156Y+8672576D01*
X+11557508Y+8693912D02*
X+11493500Y+8693912D01*
X+11536172Y+8736584D01*
X+11536172Y+8672576D01*
D22*
X+6212840Y+561340D02*
X+8265160Y+561340D01*
X+8265160Y+962660D01*
X+6212840Y+962660D01*
X+6212840Y+561340D01*
D53*
X+6564785Y+834237D02*
X+6564785Y+762000D01*
X+6637022Y+689762D01*
X+6709259Y+762000D01*
X+6709259Y+834237D01*
X+6901892Y+713841D02*
X+6877813Y+689762D01*
X+6805576Y+689762D01*
X+6757418Y+737920D01*
X+6757418Y+786079D01*
X+6805576Y+834237D01*
X+6877813Y+834237D01*
X+6901892Y+810158D01*
X+7094525Y+713841D02*
X+7070446Y+689762D01*
X+6998209Y+689762D01*
X+6950051Y+737920D01*
X+6950051Y+786079D01*
X+6998209Y+834237D01*
X+7070446Y+834237D01*
X+7094525Y+810158D01*
X+7142684Y+665683D02*
X+7287158Y+665683D01*
X+7431633Y+737920D02*
X+7479791Y+737920D01*
X+7479791Y+689762D01*
X+7383475Y+689762D01*
X+7335317Y+737920D01*
X+7335317Y+786079D01*
X+7383475Y+834237D01*
X+7455712Y+834237D01*
X+7479791Y+810158D01*
X+7527950Y+689762D02*
X+7527950Y+834237D01*
X+7672424Y+689762D01*
X+7672424Y+834237D01*
X+7720583Y+689762D02*
X+7720583Y+834237D01*
X+7816899Y+834237D01*
X+7865057Y+786079D01*
X+7865057Y+737920D01*
X+7816899Y+689762D01*
X+7720583Y+689762D01*
D22*
X+8625840Y+561340D02*
X+10678160Y+561340D01*
X+10678160Y+962660D01*
X+8625840Y+962660D01*
X+8625840Y+561340D01*
D53*
X+9170418Y+689762D02*
X+9170418Y+834237D01*
X+9290813Y+834237D01*
X+9314892Y+810158D01*
X+9314892Y+786079D01*
X+9290813Y+762000D01*
X+9170418Y+762000D01*
X+9363051Y+786079D02*
X+9411209Y+834237D01*
X+9459367Y+834237D01*
X+9507525Y+786079D01*
X+9507525Y+737920D01*
X+9459367Y+689762D01*
X+9411209Y+689762D01*
X+9363051Y+737920D01*
X+9363051Y+786079D01*
X+9555684Y+689762D02*
X+9555684Y+834237D01*
X+9676079Y+834237D01*
X+9700158Y+810158D01*
X+9700158Y+786079D01*
X+9676079Y+762000D01*
X+9555684Y+762000D01*
X+9676079Y+762000D02*
X+9700158Y+737920D01*
X+9700158Y+689762D01*
X+9748317Y+834237D02*
X+9892791Y+834237D01*
X+9820554Y+834237D02*
X+9820554Y+689762D01*
X+9940950Y+689762D02*
X+9940950Y+834237D01*
X+10037266Y+834237D01*
X+10085424Y+786079D01*
X+10085424Y+737920D01*
X+10037266Y+689762D01*
X+9940950Y+689762D01*
D22*
X+3799840Y+561340D02*
X+5852160Y+561340D01*
X+5852160Y+962660D01*
X+3799840Y+962660D01*
X+3799840Y+561340D01*
D53*
X+4344418Y+689762D02*
X+4344418Y+834237D01*
X+4464813Y+834237D01*
X+4488892Y+810158D01*
X+4488892Y+786079D01*
X+4464813Y+762000D01*
X+4344418Y+762000D01*
X+4537051Y+786079D02*
X+4585209Y+834237D01*
X+4633367Y+834237D01*
X+4681525Y+786079D01*
X+4681525Y+737920D01*
X+4633367Y+689762D01*
X+4585209Y+689762D01*
X+4537051Y+737920D01*
X+4537051Y+786079D01*
X+4729684Y+689762D02*
X+4729684Y+834237D01*
X+4850079Y+834237D01*
X+4874158Y+810158D01*
X+4874158Y+786079D01*
X+4850079Y+762000D01*
X+4729684Y+762000D01*
X+4850079Y+762000D02*
X+4874158Y+737920D01*
X+4874158Y+689762D01*
X+4922317Y+834237D02*
X+5066791Y+834237D01*
X+4994554Y+834237D02*
X+4994554Y+689762D01*
X+5114950Y+689762D02*
X+5114950Y+834237D01*
X+5235345Y+834237D01*
X+5259424Y+810158D01*
X+5259424Y+786079D01*
X+5235345Y+762000D01*
X+5259424Y+737920D01*
X+5259424Y+713841D01*
X+5235345Y+689762D01*
X+5114950Y+689762D01*
X+5114950Y+762000D02*
X+5235345Y+762000D01*
D23*
X+14363700Y+3657600D02*
X+14363700Y+3962400D01*
X+13322300Y+3962400D01*
X+13322300Y+3657600D01*
X+14363700Y+3657600D01*
X+14363700Y+3962400D01*
X+13322300Y+3962400D01*
X+13322300Y+3657600D01*
X+14363700Y+3657600D01*
D54*
X+13552424Y+3849624D02*
X+13486384Y+3849624D01*
X+13486384Y+3823208D01*
X+13539216Y+3823208D01*
X+13552424Y+3810000D01*
X+13552424Y+3783584D01*
X+13539216Y+3770376D01*
X+13499592Y+3770376D01*
X+13486384Y+3783584D01*
X+13578840Y+3849624D02*
X+13578840Y+3810000D01*
X+13618464Y+3770376D01*
X+13658088Y+3810000D01*
X+13658088Y+3849624D01*
X+13697712Y+3823208D02*
X+13763752Y+3823208D01*
X+13697712Y+3783584D02*
X+13763752Y+3783584D01*
X+13803376Y+3823208D02*
X+13869416Y+3823208D01*
X+13803376Y+3783584D02*
X+13869416Y+3783584D01*
X+13922248Y+3823208D02*
X+13948664Y+3849624D01*
X+13948664Y+3770376D01*
X+14014704Y+3836416D02*
X+14027912Y+3849624D01*
X+14067536Y+3849624D01*
X+14080744Y+3836416D01*
X+14080744Y+3823208D01*
X+14067536Y+3810000D01*
X+14027912Y+3810000D01*
X+14014704Y+3796792D01*
X+14014704Y+3770376D01*
X+14080744Y+3770376D01*
X+14107160Y+3849624D02*
X+14107160Y+3810000D01*
X+14146784Y+3770376D01*
X+14186408Y+3810000D01*
X+14186408Y+3849624D01*
D55*
X+11589000Y+2059500D02*
X+12359000Y+2059500D01*
X+12359000Y+2639500D01*
X+11589000Y+2639500D01*
X+11589000Y+2059500D01*
X+11974000Y+2399500D02*
X+11974000Y+2299500D01*
X+12024000Y+2349500D02*
X+11924000Y+2349500D01*
D56*
X+11767334Y+2427000D02*
X+11767334Y+2297833D01*
X+11793167Y+2272000D01*
X+11896500Y+2272000D01*
X+11922333Y+2297833D01*
X+11922333Y+2427000D01*
X+11999833Y+2401167D02*
X+12025666Y+2427000D01*
X+12103166Y+2427000D01*
X+12128999Y+2401167D01*
X+12128999Y+2375333D01*
X+12103166Y+2349500D01*
X+12128999Y+2323667D01*
X+12128999Y+2297833D01*
X+12103166Y+2272000D01*
X+12025666Y+2272000D01*
X+11999833Y+2297833D01*
X+12051499Y+2349500D02*
X+12103166Y+2349500D01*
D23*
X+2692400Y+1536700D02*
X+2387600Y+1536700D01*
X+2387600Y+495300D01*
X+2692400Y+495300D01*
X+2692400Y+1536700D01*
X+2387600Y+1536700D01*
X+2387600Y+495300D01*
X+2692400Y+495300D01*
X+2692400Y+1536700D01*
D57*
X+2517358Y+623537D02*
X+2555095Y+623537D01*
X+2562643Y+631084D01*
X+2562643Y+661273D01*
X+2555095Y+668821D01*
X+2517358Y+668821D01*
X+2555095Y+683916D02*
X+2562643Y+691463D01*
X+2562643Y+721652D01*
X+2555095Y+729200D01*
X+2547548Y+729200D01*
X+2540000Y+721652D01*
X+2540000Y+691463D01*
X+2532453Y+683916D01*
X+2524906Y+683916D01*
X+2517358Y+691463D01*
X+2517358Y+721652D01*
X+2524906Y+729200D01*
X+2562643Y+744295D02*
X+2517358Y+744295D01*
X+2517358Y+782031D01*
X+2524906Y+789579D01*
X+2532453Y+789579D01*
X+2540000Y+782031D01*
X+2547548Y+789579D01*
X+2555095Y+789579D01*
X+2562643Y+782031D01*
X+2562643Y+744295D01*
X+2540000Y+744295D02*
X+2540000Y+782031D01*
X+2570190Y+804674D02*
X+2570190Y+849958D01*
X+2562643Y+865053D02*
X+2517358Y+865053D01*
X+2517358Y+902789D01*
X+2524906Y+910337D01*
X+2532453Y+910337D01*
X+2540000Y+902789D01*
X+2540000Y+865053D01*
X+2532453Y+925432D02*
X+2517358Y+940526D01*
X+2517358Y+955621D01*
X+2532453Y+970716D01*
X+2547548Y+970716D01*
X+2562643Y+955621D01*
X+2562643Y+940526D01*
X+2547548Y+925432D01*
X+2532453Y+925432D01*
X+2517358Y+985811D02*
X+2562643Y+985811D01*
X+2540000Y+1008453D01*
X+2562643Y+1031095D01*
X+2517358Y+1031095D01*
X+2562643Y+1091474D02*
X+2562643Y+1046190D01*
X+2517358Y+1046190D01*
X+2517358Y+1091474D01*
X+2540000Y+1046190D02*
X+2540000Y+1076379D01*
X+2562643Y+1106569D02*
X+2517358Y+1106569D01*
X+2517358Y+1144305D01*
X+2524906Y+1151853D01*
X+2532453Y+1151853D01*
X+2540000Y+1144305D01*
X+2540000Y+1106569D01*
X+2540000Y+1144305D02*
X+2547548Y+1151853D01*
X+2562643Y+1151853D01*
X+2570190Y+1166948D02*
X+2570190Y+1212232D01*
X+2517358Y+1227327D02*
X+2540000Y+1227327D01*
X+2562643Y+1249969D01*
X+2540000Y+1272611D01*
X+2517358Y+1272611D01*
X+2555095Y+1332990D02*
X+2562643Y+1325442D01*
X+2562643Y+1302800D01*
X+2547548Y+1287706D01*
X+2532453Y+1287706D01*
X+2517358Y+1302800D01*
X+2517358Y+1325442D01*
X+2524906Y+1332990D01*
X+2555095Y+1393369D02*
X+2562643Y+1385821D01*
X+2562643Y+1363179D01*
X+2547548Y+1348085D01*
X+2532453Y+1348085D01*
X+2517358Y+1363179D01*
X+2517358Y+1385821D01*
X+2524906Y+1393369D01*
D22*
X+11455400Y+1422400D02*
X+12674600Y+1422400D01*
X+12674600Y+1625600D01*
X+11455400Y+1625600D01*
X+11455400Y+1422400D01*
D41*
X+11943080Y+1511808D02*
X+11869928Y+1511808D01*
X+11918696Y+1560576D01*
X+11918696Y+1487424D01*
X+12004040Y+1499616D02*
X+12016232Y+1499616D01*
X+12016232Y+1487424D01*
X+12004040Y+1487424D01*
X+12004040Y+1499616D01*
X+12077192Y+1560576D02*
X+12138152Y+1560576D01*
X+12138152Y+1548384D01*
X+12077192Y+1487424D01*
X+12162536Y+1560576D02*
X+12162536Y+1487424D01*
X+12235688Y+1560576D02*
X+12199112Y+1524000D01*
X+12235688Y+1487424D01*
X+12162536Y+1524000D02*
X+12199112Y+1524000D01*
D22*
X+2219960Y+3291840D02*
X+2811780Y+3291840D01*
X+2811780Y+3883660D01*
X+2219960Y+3883660D01*
X+2219960Y+3291840D01*
D58*
X+2471483Y+3410204D02*
X+2560256Y+3410204D01*
X+2560256Y+3498977D01*
X+2560256Y+3617341D02*
X+2560256Y+3528568D01*
X+2471483Y+3528568D01*
X+2471483Y+3617341D01*
X+2515870Y+3528568D02*
X+2515870Y+3587750D01*
X+2560256Y+3646932D02*
X+2471483Y+3646932D01*
X+2471483Y+3706114D01*
X+2501074Y+3735705D01*
X+2530665Y+3735705D01*
X+2560256Y+3706114D01*
X+2560256Y+3646932D01*
D22*
X+3020060Y+2987040D02*
X+3223260Y+2987040D01*
X+3223260Y+4206240D01*
X+3020060Y+4206240D01*
X+3020060Y+2987040D01*
D41*
X+3109468Y+3523488D02*
X+3085084Y+3547872D01*
X+3158236Y+3547872D01*
X+3085084Y+3596640D02*
X+3158236Y+3596640D01*
X+3085084Y+3669792D02*
X+3121660Y+3633216D01*
X+3158236Y+3669792D01*
X+3121660Y+3596640D02*
X+3121660Y+3633216D01*
M02*
